<?xml version="1.0" encoding="utf-8"?>
<!-- Generator: Adobe Illustrator 16.0.0, SVG Export Plug-In . SVG Version: 6.00 Build 0)  -->
<!DOCTYPE svg PUBLIC "-//W3C//DTD SVG 1.1//EN" "http://www.w3.org/Graphics/SVG/1.1/DTD/svg11.dtd">
<svg version="1.1" id="Vrstva_1" xmlns="http://www.w3.org/2000/svg" xmlns:xlink="http://www.w3.org/1999/xlink" x="0px" y="0px"
	 width="536px" height="115px" viewBox="0 0 536 115" enable-background="new 0 0 536 115" xml:space="preserve">
<g>
	<rect x="12.75" y="62.75" fill="#B71A2B" width="463.75" height="17.75"/>
	<g>
		<polygon fill="#C54855" points="32.929,80.5 50.678,62.75 65.03,62.75 47.281,80.5 		"/>
		<path fill="#FFFFFF" d="M64.323,62.75L46.574,80.5H33.637l17.749-17.75H64.323 M49.972,62.75L32.93,79.793L32.222,80.5h3.767
			h8.703h1.882h1.414L65.03,63.457l0.707-0.707"/>
	</g>
	<g>
		<polygon fill="#D47680" points="47.273,80.5 65.022,62.751 79.374,62.751 61.625,80.5 		"/>
		<path fill="#FFFFFF" d="M78.667,62.75L60.918,80.5H47.98l17.749-17.75H78.667 M64.315,62.75L47.273,79.793L46.566,80.5h3.767
			h8.703h1.882h1.414l17.042-17.043l0.707-0.706"/>
	</g>
	<g>
		<polygon fill="#D47680" points="61.585,80.502 79.334,62.753 93.686,62.753 75.937,80.502 		"/>
		<path fill="#FFFFFF" d="M92.979,62.752L75.23,80.502H62.293l17.749-17.75H92.979 M78.628,62.752L61.586,79.795l-0.708,0.707h3.767
			h8.703h1.882h1.414l17.042-17.043l0.707-0.706"/>
	</g>
	<g>
		<polygon fill="#E2A3AA" points="75.929,80.502 93.678,62.754 108.03,62.754 90.281,80.502 		"/>
		<path fill="#FFFFFF" d="M107.323,62.753L89.574,80.502H76.637l17.749-17.749H107.323 M92.972,62.753L75.93,79.795l-0.708,0.707
			h3.767h8.703h1.882h1.414L108.03,63.46l0.707-0.706"/>
	</g>
	<g>
		<polygon fill="#F1D1D5" points="90.242,80.502 107.991,62.754 122.342,62.754 104.593,80.502 		"/>
		<path fill="#FFFFFF" d="M121.636,62.754l-17.749,17.748H90.949l17.749-17.748H121.636 M107.284,62.754L90.242,79.795l-0.708,0.707
			h3.767h8.703h1.882h1.414l17.042-17.041l0.707-0.707"/>
	</g>
	<g>
		<polygon fill="#FFFFFF" points="104.575,80.503 122.324,62.755 136.676,62.755 118.927,80.503 		"/>
		<path fill="#FFFFFF" d="M135.969,62.754L118.22,80.503h-12.938l17.749-17.749H135.969 M121.618,62.754l-17.042,17.042
			l-0.708,0.707h3.767h8.703h1.882h1.414l17.042-17.042l0.707-0.706"/>
	</g>
</g>
<g>
	<path d="M12.697,50.192l9.939-25.88h3.689l10.592,25.88h-3.901l-3.019-7.838H19.176l-2.842,7.838H12.697z M20.165,39.565h8.774
		l-2.701-7.167c-0.824-2.177-1.436-3.966-1.836-5.367c-0.33,1.659-0.794,3.307-1.395,4.943L20.165,39.565z"/>
	<path d="M38.666,51.746l3.089,0.459c0.129,0.953,0.488,1.647,1.077,2.083c0.789,0.588,1.865,0.883,3.231,0.883
		c1.471,0,2.606-0.294,3.407-0.883c0.8-0.589,1.342-1.412,1.624-2.472c0.165-0.647,0.241-2.006,0.229-4.078
		c-1.389,1.636-3.119,2.454-5.19,2.454c-2.577,0-4.572-0.93-5.984-2.79c-1.413-1.859-2.119-4.089-2.119-6.69
		c0-1.789,0.324-3.439,0.971-4.952c0.647-1.512,1.586-2.68,2.816-3.504c1.229-0.823,2.674-1.235,4.334-1.235
		c2.212,0,4.037,0.895,5.473,2.683v-2.26h2.93V47.65c0,2.918-0.297,4.987-0.891,6.205c-0.595,1.218-1.536,2.18-2.825,2.887
		c-1.289,0.706-2.875,1.059-4.758,1.059c-2.236,0-4.043-0.503-5.42-1.509C39.284,55.286,38.619,53.77,38.666,51.746z M41.296,40.483
		c0,2.46,0.488,4.254,1.465,5.384c0.977,1.13,2.201,1.695,3.672,1.695c1.459,0,2.684-0.562,3.672-1.686
		c0.989-1.124,1.483-2.886,1.483-5.287c0-2.295-0.509-4.025-1.527-5.19c-1.018-1.165-2.245-1.748-3.681-1.748
		c-1.413,0-2.613,0.574-3.602,1.721S41.296,38.223,41.296,40.483z"/>
	<path d="M59.321,50.192V31.444h2.86v2.842c0.729-1.33,1.403-2.207,2.021-2.63c0.618-0.424,1.297-0.635,2.039-0.635
		c1.071,0,2.16,0.341,3.266,1.024l-1.095,2.948c-0.776-0.459-1.553-0.688-2.33-0.688c-0.694,0-1.318,0.209-1.871,0.627
		c-0.554,0.418-0.948,0.998-1.183,1.739c-0.353,1.13-0.529,2.366-0.529,3.708v9.815H59.321z"/>
	<path d="M83.63,47.88c-1.177,1-2.31,1.707-3.398,2.118c-1.089,0.412-2.257,0.618-3.504,0.618c-2.06,0-3.643-0.503-4.749-1.51
		c-1.106-1.006-1.66-2.292-1.66-3.857c0-0.918,0.209-1.757,0.627-2.516c0.417-0.759,0.965-1.368,1.642-1.827
		s1.439-0.806,2.286-1.042c0.624-0.165,1.565-0.323,2.825-0.477c2.566-0.306,4.455-0.671,5.667-1.095
		c0.012-0.435,0.018-0.712,0.018-0.83c0-1.294-0.3-2.207-0.9-2.736c-0.812-0.718-2.019-1.077-3.619-1.077
		c-1.495,0-2.598,0.262-3.311,0.786c-0.712,0.523-1.239,1.451-1.58,2.78l-3.107-0.424c0.283-1.33,0.748-2.403,1.395-3.222
		c0.647-0.818,1.583-1.448,2.807-1.889c1.224-0.441,2.642-0.662,4.255-0.662c1.6,0,2.901,0.188,3.901,0.565
		c1,0.376,1.736,0.85,2.207,1.421s0.8,1.292,0.989,2.163c0.106,0.542,0.159,1.518,0.159,2.931v4.237
		c0,2.954,0.068,4.823,0.203,5.605c0.135,0.783,0.403,1.533,0.803,2.251h-3.319C83.936,49.533,83.724,48.762,83.63,47.88z
		 M83.365,40.783c-1.153,0.471-2.884,0.871-5.19,1.201c-1.306,0.188-2.23,0.4-2.771,0.635c-0.542,0.236-0.959,0.58-1.253,1.033
		c-0.294,0.453-0.441,0.956-0.441,1.509c0,0.847,0.321,1.553,0.962,2.118c0.641,0.565,1.58,0.848,2.815,0.848
		c1.224,0,2.313-0.268,3.266-0.803c0.954-0.536,1.653-1.268,2.101-2.198c0.341-0.717,0.512-1.777,0.512-3.177V40.783z"/>
	<path d="M91.469,50.192V31.444h2.86v2.842c0.729-1.33,1.403-2.207,2.021-2.63c0.618-0.424,1.297-0.635,2.039-0.635
		c1.071,0,2.16,0.341,3.266,1.024l-1.095,2.948c-0.776-0.459-1.553-0.688-2.33-0.688c-0.694,0-1.318,0.209-1.871,0.627
		c-0.554,0.418-0.948,0.998-1.183,1.739c-0.353,1.13-0.529,2.366-0.529,3.708v9.815H91.469z"/>
	<path d="M103.562,27.966v-3.654h3.178v3.654H103.562z M103.562,50.192V31.444h3.178v18.749H103.562z"/>
	<path d="M123.81,47.88c-1.177,1-2.31,1.707-3.398,2.118c-1.089,0.412-2.257,0.618-3.504,0.618c-2.06,0-3.643-0.503-4.749-1.51
		c-1.106-1.006-1.66-2.292-1.66-3.857c0-0.918,0.209-1.757,0.627-2.516c0.417-0.759,0.965-1.368,1.642-1.827
		s1.439-0.806,2.286-1.042c0.624-0.165,1.565-0.323,2.825-0.477c2.566-0.306,4.455-0.671,5.667-1.095
		c0.012-0.435,0.018-0.712,0.018-0.83c0-1.294-0.3-2.207-0.9-2.736c-0.812-0.718-2.019-1.077-3.619-1.077
		c-1.495,0-2.598,0.262-3.311,0.786c-0.712,0.523-1.239,1.451-1.58,2.78l-3.107-0.424c0.283-1.33,0.748-2.403,1.395-3.222
		c0.647-0.818,1.583-1.448,2.807-1.889c1.224-0.441,2.642-0.662,4.255-0.662c1.6,0,2.901,0.188,3.901,0.565
		c1,0.376,1.736,0.85,2.207,1.421s0.8,1.292,0.989,2.163c0.106,0.542,0.159,1.518,0.159,2.931v4.237
		c0,2.954,0.068,4.823,0.203,5.605c0.135,0.783,0.403,1.533,0.803,2.251h-3.319C124.116,49.533,123.904,48.762,123.81,47.88z
		 M123.545,40.783c-1.153,0.471-2.884,0.871-5.19,1.201c-1.306,0.188-2.23,0.4-2.771,0.635c-0.542,0.236-0.959,0.58-1.253,1.033
		c-0.294,0.453-0.441,0.956-0.441,1.509c0,0.847,0.321,1.553,0.962,2.118c0.641,0.565,1.58,0.848,2.815,0.848
		c1.224,0,2.313-0.268,3.266-0.803c0.954-0.536,1.653-1.268,2.101-2.198c0.341-0.717,0.512-1.777,0.512-3.177V40.783z"/>
	<path d="M131.684,50.192V31.444h2.86v2.666c1.377-2.06,3.366-3.089,5.967-3.089c1.13,0,2.168,0.203,3.116,0.609
		c0.947,0.406,1.656,0.938,2.127,1.598c0.47,0.659,0.8,1.442,0.988,2.348c0.118,0.588,0.177,1.618,0.177,3.089v11.528h-3.178V38.788
		c0-1.294-0.124-2.263-0.371-2.904c-0.248-0.641-0.686-1.153-1.315-1.536c-0.63-0.382-1.368-0.574-2.215-0.574
		c-1.354,0-2.522,0.43-3.504,1.289c-0.983,0.859-1.474,2.489-1.474,4.89v10.239H131.684z"/>
	<path d="M162.243,50.192v-25.88h9.762c1.718,0,3.031,0.083,3.937,0.247c1.271,0.212,2.336,0.615,3.195,1.209
		c0.859,0.595,1.55,1.427,2.074,2.498c0.523,1.071,0.786,2.249,0.786,3.531c0,2.201-0.7,4.063-2.101,5.587
		c-1.401,1.524-3.931,2.287-7.591,2.287h-6.638v10.521H162.243z M165.668,36.617h6.69c2.213,0,3.784-0.412,4.714-1.236
		c0.93-0.824,1.395-1.983,1.395-3.478c0-1.083-0.273-2.009-0.821-2.78c-0.547-0.771-1.269-1.28-2.163-1.527
		c-0.577-0.152-1.642-0.229-3.195-0.229h-6.62V36.617z"/>
	<path d="M198.786,44.155l3.284,0.406c-0.518,1.918-1.478,3.407-2.878,4.466c-1.4,1.059-3.189,1.589-5.367,1.589
		c-2.742,0-4.917-0.845-6.523-2.534c-1.606-1.688-2.41-4.057-2.41-7.105c0-3.154,0.812-5.602,2.436-7.344s3.731-2.613,6.32-2.613
		c2.507,0,4.555,0.853,6.144,2.56c1.588,1.707,2.383,4.107,2.383,7.203c0,0.188-0.006,0.471-0.018,0.848h-13.982
		c0.118,2.06,0.7,3.637,1.748,4.731c1.047,1.095,2.354,1.642,3.919,1.642c1.165,0,2.16-0.306,2.983-0.918
		S198.303,45.497,198.786,44.155z M188.353,39.018h10.469c-0.141-1.577-0.542-2.76-1.201-3.548
		c-1.012-1.224-2.324-1.836-3.937-1.836c-1.459,0-2.687,0.488-3.681,1.465C189.008,36.075,188.458,37.382,188.353,39.018z"/>
	<path d="M206.024,50.192V31.444h2.86v2.842c0.729-1.33,1.403-2.207,2.021-2.63c0.618-0.424,1.297-0.635,2.039-0.635
		c1.071,0,2.16,0.341,3.266,1.024l-1.095,2.948c-0.776-0.459-1.553-0.688-2.33-0.688c-0.694,0-1.318,0.209-1.871,0.627
		c-0.554,0.418-0.948,0.998-1.183,1.739c-0.353,1.13-0.529,2.366-0.529,3.708v9.815H206.024z"/>
	<path d="M216.829,44.596l3.142-0.495c0.177,1.26,0.668,2.225,1.474,2.896s1.933,1.006,3.381,1.006c1.459,0,2.542-0.297,3.249-0.892
		c0.706-0.594,1.059-1.292,1.059-2.092c0-0.718-0.312-1.283-0.936-1.695c-0.436-0.283-1.519-0.642-3.249-1.077
		c-2.33-0.588-3.946-1.097-4.846-1.527c-0.9-0.43-1.583-1.024-2.048-1.783c-0.465-0.759-0.698-1.598-0.698-2.516
		c0-0.835,0.191-1.609,0.574-2.321s0.903-1.304,1.563-1.774c0.495-0.365,1.168-0.673,2.021-0.927
		c0.853-0.253,1.768-0.379,2.745-0.379c1.471,0,2.763,0.211,3.875,0.635s1.933,0.998,2.463,1.721
		c0.529,0.724,0.894,1.692,1.094,2.904l-3.107,0.424c-0.141-0.965-0.55-1.718-1.227-2.26s-1.633-0.812-2.869-0.812
		c-1.459,0-2.501,0.241-3.125,0.724c-0.624,0.483-0.936,1.047-0.936,1.695c0,0.412,0.129,0.783,0.389,1.112
		c0.259,0.341,0.665,0.624,1.218,0.847c0.317,0.118,1.253,0.388,2.807,0.812c2.248,0.6,3.816,1.092,4.705,1.474
		c0.888,0.383,1.585,0.939,2.092,1.668c0.506,0.73,0.759,1.636,0.759,2.719c0,1.059-0.309,2.057-0.927,2.992
		c-0.618,0.936-1.509,1.659-2.674,2.171c-1.165,0.512-2.483,0.768-3.955,0.768c-2.436,0-4.293-0.506-5.57-1.519
		C217.997,48.086,217.182,46.585,216.829,44.596z"/>
	<path d="M236.177,57.377V31.444h2.895v2.437c0.683-0.954,1.454-1.668,2.313-2.145c0.859-0.477,1.9-0.715,3.125-0.715
		c1.601,0,3.013,0.412,4.237,1.235c1.224,0.824,2.148,1.986,2.772,3.487c0.624,1.5,0.936,3.146,0.936,4.934
		c0,1.918-0.344,3.646-1.033,5.182c-0.688,1.536-1.689,2.713-3.001,3.531c-1.312,0.818-2.692,1.227-4.14,1.227
		c-1.059,0-2.01-0.224-2.851-0.671c-0.842-0.447-1.533-1.012-2.074-1.695v9.127H236.177z M239.055,40.924
		c0,2.413,0.488,4.196,1.465,5.349c0.977,1.153,2.16,1.73,3.548,1.73c1.413,0,2.622-0.597,3.628-1.792
		c1.006-1.194,1.509-3.045,1.509-5.552c0-2.389-0.491-4.178-1.474-5.367c-0.982-1.188-2.157-1.783-3.521-1.783
		c-1.354,0-2.551,0.633-3.593,1.898S239.055,38.512,239.055,40.924z"/>
	<path d="M269.119,44.155l3.283,0.406c-0.518,1.918-1.477,3.407-2.877,4.466c-1.4,1.059-3.19,1.589-5.367,1.589
		c-2.742,0-4.917-0.845-6.523-2.534c-1.606-1.688-2.41-4.057-2.41-7.105c0-3.154,0.812-5.602,2.436-7.344s3.731-2.613,6.32-2.613
		c2.507,0,4.555,0.853,6.143,2.56c1.589,1.707,2.384,4.107,2.384,7.203c0,0.188-0.006,0.471-0.018,0.848h-13.982
		c0.118,2.06,0.7,3.637,1.748,4.731c1.047,1.095,2.354,1.642,3.919,1.642c1.165,0,2.16-0.306,2.983-0.918
		S268.637,45.497,269.119,44.155z M258.686,39.018h10.469c-0.142-1.577-0.541-2.76-1.201-3.548
		c-1.012-1.224-2.324-1.836-3.937-1.836c-1.459,0-2.687,0.488-3.681,1.465C259.341,36.075,258.792,37.382,258.686,39.018z"/>
	<path d="M288.626,43.325l3.125,0.406c-0.342,2.154-1.216,3.84-2.622,5.058c-1.406,1.218-3.133,1.827-5.181,1.827
		c-2.566,0-4.629-0.839-6.188-2.516c-1.56-1.677-2.339-4.081-2.339-7.212c0-2.024,0.336-3.795,1.007-5.313
		c0.671-1.519,1.691-2.657,3.063-3.416c1.371-0.759,2.862-1.139,4.476-1.139c2.036,0,3.701,0.515,4.996,1.544
		c1.294,1.03,2.124,2.492,2.489,4.387l-3.09,0.477c-0.294-1.259-0.815-2.207-1.563-2.842c-0.747-0.636-1.65-0.953-2.71-0.953
		c-1.601,0-2.901,0.574-3.901,1.721s-1.5,2.963-1.5,5.446c0,2.519,0.482,4.349,1.447,5.491s2.225,1.712,3.778,1.712
		c1.247,0,2.288-0.382,3.124-1.147S288.402,44.914,288.626,43.325z"/>
	<path d="M301.408,47.35l0.459,2.807c-0.895,0.188-1.694,0.282-2.401,0.282c-1.153,0-2.048-0.183-2.683-0.547
		c-0.636-0.364-1.083-0.844-1.342-1.438s-0.389-1.845-0.389-3.751V33.916h-2.33v-2.472h2.33v-4.643l3.16-1.907v6.549h3.195v2.472
		h-3.195v10.963c0,0.907,0.056,1.489,0.168,1.748c0.111,0.259,0.294,0.465,0.547,0.618c0.253,0.153,0.615,0.229,1.086,0.229
		C300.366,47.474,300.831,47.433,301.408,47.35z"/>
	<path d="M304.533,27.966v-3.654h3.178v3.654H304.533z M304.533,50.192V31.444h3.178v18.749H304.533z"/>
	<path d="M317.755,50.192l-7.132-18.749h3.354l4.024,11.228c0.436,1.212,0.836,2.472,1.201,3.778
		c0.282-0.989,0.677-2.177,1.183-3.566l4.166-11.44h3.267l-7.098,18.749H317.755z"/>
	<path d="M343.46,44.155l3.283,0.406c-0.518,1.918-1.477,3.407-2.877,4.466c-1.401,1.059-3.189,1.589-5.367,1.589
		c-2.742,0-4.917-0.845-6.523-2.534c-1.606-1.688-2.409-4.057-2.409-7.105c0-3.154,0.812-5.602,2.437-7.344
		c1.624-1.742,3.73-2.613,6.319-2.613c2.507,0,4.555,0.853,6.144,2.56s2.384,4.107,2.384,7.203c0,0.188-0.006,0.471-0.018,0.848
		H332.85c0.118,2.06,0.7,3.637,1.748,4.731c1.047,1.095,2.354,1.642,3.919,1.642c1.165,0,2.16-0.306,2.983-0.918
		C342.324,46.474,342.978,45.497,343.46,44.155z M333.026,39.018h10.469c-0.142-1.577-0.541-2.76-1.2-3.548
		c-1.013-1.224-2.325-1.836-3.938-1.836c-1.459,0-2.686,0.488-3.681,1.465C333.683,36.075,333.132,37.382,333.026,39.018z"/>
	<path d="M349.462,44.596l3.143-0.495c0.176,1.26,0.668,2.225,1.474,2.896c0.807,0.671,1.934,1.006,3.381,1.006
		c1.459,0,2.542-0.297,3.248-0.892s1.06-1.292,1.06-2.092c0-0.718-0.313-1.283-0.936-1.695c-0.436-0.283-1.519-0.642-3.248-1.077
		c-2.331-0.588-3.946-1.097-4.847-1.527s-1.583-1.024-2.048-1.783s-0.697-1.598-0.697-2.516c0-0.835,0.191-1.609,0.574-2.321
		c0.382-0.712,0.903-1.304,1.563-1.774c0.494-0.365,1.168-0.673,2.021-0.927c0.854-0.253,1.769-0.379,2.746-0.379
		c1.471,0,2.763,0.211,3.875,0.635c1.111,0.424,1.933,0.998,2.462,1.721c0.53,0.724,0.895,1.692,1.095,2.904l-3.106,0.424
		c-0.142-0.965-0.551-1.718-1.228-2.26s-1.633-0.812-2.868-0.812c-1.46,0-2.502,0.241-3.125,0.724
		c-0.624,0.483-0.936,1.047-0.936,1.695c0,0.412,0.129,0.783,0.388,1.112c0.259,0.341,0.665,0.624,1.219,0.847
		c0.317,0.118,1.253,0.388,2.807,0.812c2.248,0.6,3.816,1.092,4.705,1.474c0.889,0.383,1.586,0.939,2.092,1.668
		c0.506,0.73,0.759,1.636,0.759,2.719c0,1.059-0.309,2.057-0.927,2.992s-1.509,1.659-2.675,2.171
		c-1.165,0.512-2.483,0.768-3.954,0.768c-2.437,0-4.293-0.506-5.569-1.519C350.63,48.086,349.814,46.585,349.462,44.596z"/>
	<path d="M376.472,50.192l8.845-13.505l-8.015-12.375h6.107l5.19,8.315l5.085-8.315h6.055l-8.05,12.569l8.845,13.311h-6.303
		l-5.737-8.951l-5.755,8.951H376.472z"/>
	<path d="M400.587,50.192l8.845-13.505l-8.015-12.375h6.107l5.19,8.315l5.085-8.315h6.055l-8.05,12.569l8.845,13.311h-6.303
		l-5.737-8.951l-5.755,8.951H400.587z"/>
	<path d="M433.936,50.192l-9.251-25.88h5.667l6.55,19.154l6.337-19.154h5.544l-9.269,25.88H433.936z"/>
	<path d="M451.289,50.192v-25.88h5.226v25.88H451.289z"/>
	<path d="M461.334,50.192v-25.88h5.226v25.88H461.334z"/>
	<path d="M471.503,50.192v-4.961h4.961v4.961H471.503z"/>
</g>
<g>
	<path d="M12.835,99.584V87.415h1.61v12.169H12.835z"/>
	<path d="M16.771,99.584v-8.815h1.345v1.253c0.647-0.968,1.583-1.452,2.806-1.452c0.531,0,1.02,0.096,1.465,0.286
		c0.445,0.191,0.779,0.441,1,0.752c0.221,0.31,0.376,0.678,0.465,1.104c0.055,0.276,0.083,0.761,0.083,1.453v5.42H22.44v-5.362
		c0-0.608-0.058-1.063-0.174-1.365s-0.322-0.543-0.619-0.723c-0.296-0.18-0.643-0.27-1.042-0.27c-0.636,0-1.186,0.202-1.648,0.606
		c-0.462,0.403-0.693,1.17-0.693,2.299v4.814H16.771z"/>
	<path d="M29.165,98.248l0.216,1.319c-0.42,0.089-0.797,0.133-1.129,0.133c-0.542,0-0.963-0.086-1.262-0.257
		c-0.299-0.172-0.509-0.397-0.631-0.677s-0.183-0.868-0.183-1.765v-5.071h-1.096v-1.162h1.096v-2.183l1.486-0.896v3.079h1.502v1.162
		h-1.502v5.155c0,0.426,0.026,0.699,0.079,0.821c0.053,0.122,0.139,0.219,0.258,0.29c0.119,0.072,0.289,0.108,0.51,0.108
		C28.675,98.306,28.894,98.286,29.165,98.248z"/>
	<path d="M36.337,96.745l1.544,0.19c-0.244,0.902-0.694,1.603-1.353,2.101s-1.5,0.747-2.523,0.747c-1.29,0-2.312-0.397-3.067-1.191
		c-0.756-0.794-1.133-1.907-1.133-3.341c0-1.483,0.382-2.634,1.146-3.453s1.754-1.229,2.972-1.229c1.179,0,2.142,0.401,2.889,1.204
		c0.747,0.802,1.121,1.931,1.121,3.387c0,0.088-0.003,0.221-0.008,0.398h-6.574c0.055,0.968,0.329,1.709,0.822,2.225
		c0.493,0.514,1.107,0.771,1.843,0.771c0.548,0,1.016-0.144,1.403-0.432S36.11,97.376,36.337,96.745z M31.431,94.33h4.922
		c-0.066-0.742-0.254-1.298-0.564-1.669c-0.476-0.575-1.093-0.863-1.851-0.863c-0.686,0-1.263,0.229-1.731,0.688
		C31.74,92.946,31.481,93.561,31.431,94.33z"/>
	<path d="M39.417,99.584v-8.815h1.345v1.337c0.343-0.626,0.66-1.038,0.951-1.237c0.29-0.199,0.61-0.299,0.958-0.299
		c0.503,0,1.016,0.16,1.536,0.481l-0.515,1.387c-0.365-0.217-0.73-0.324-1.096-0.324c-0.327,0-0.62,0.099-0.88,0.295
		s-0.445,0.469-0.556,0.817c-0.166,0.531-0.249,1.112-0.249,1.743v4.615H39.417z"/>
	<path d="M44.772,99.584v-8.815h1.345v1.253c0.647-0.968,1.583-1.452,2.806-1.452c0.531,0,1.02,0.096,1.465,0.286
		c0.445,0.191,0.779,0.441,1,0.752c0.221,0.31,0.376,0.678,0.465,1.104c0.055,0.276,0.083,0.761,0.083,1.453v5.42h-1.494v-5.362
		c0-0.608-0.058-1.063-0.174-1.365s-0.322-0.543-0.619-0.723c-0.296-0.18-0.643-0.27-1.042-0.27c-0.636,0-1.186,0.202-1.648,0.606
		c-0.462,0.403-0.693,1.17-0.693,2.299v4.814H44.772z"/>
	<path d="M59.656,98.496c-0.553,0.471-1.086,0.803-1.598,0.996c-0.512,0.194-1.062,0.291-1.648,0.291
		c-0.968,0-1.713-0.236-2.233-0.71c-0.52-0.473-0.78-1.077-0.78-1.813c0-0.432,0.098-0.826,0.295-1.183
		c0.196-0.357,0.454-0.644,0.771-0.859c0.318-0.216,0.677-0.379,1.075-0.489c0.293-0.078,0.736-0.152,1.328-0.225
		c1.207-0.144,2.095-0.315,2.665-0.515c0.005-0.205,0.008-0.335,0.008-0.39c0-0.609-0.141-1.038-0.423-1.287
		c-0.382-0.338-0.949-0.506-1.702-0.506c-0.703,0-1.222,0.123-1.557,0.369c-0.334,0.246-0.582,0.682-0.743,1.307l-1.461-0.199
		c0.133-0.625,0.352-1.13,0.656-1.515s0.744-0.681,1.32-0.888c0.576-0.208,1.242-0.312,2-0.312c0.752,0,1.364,0.089,1.834,0.266
		s0.816,0.399,1.038,0.668s0.376,0.607,0.465,1.017c0.05,0.255,0.075,0.715,0.075,1.379v1.992c0,1.389,0.032,2.267,0.095,2.635
		c0.064,0.368,0.19,0.721,0.378,1.059h-1.561C59.8,99.274,59.701,98.912,59.656,98.496z M59.532,95.16
		c-0.542,0.221-1.356,0.409-2.44,0.564c-0.614,0.088-1.049,0.188-1.303,0.299c-0.254,0.11-0.451,0.272-0.589,0.485
		s-0.208,0.449-0.208,0.71c0,0.398,0.151,0.73,0.452,0.996c0.302,0.266,0.743,0.398,1.324,0.398c0.576,0,1.087-0.126,1.536-0.378
		s0.777-0.597,0.988-1.034c0.161-0.337,0.241-0.835,0.241-1.494V95.16z"/>
	<path d="M66.297,98.248l0.216,1.319c-0.42,0.089-0.797,0.133-1.129,0.133c-0.542,0-0.963-0.086-1.262-0.257
		c-0.299-0.172-0.509-0.397-0.631-0.677s-0.183-0.868-0.183-1.765v-5.071h-1.096v-1.162h1.096v-2.183l1.486-0.896v3.079h1.502v1.162
		h-1.502v5.155c0,0.426,0.026,0.699,0.079,0.821c0.053,0.122,0.139,0.219,0.258,0.29c0.119,0.072,0.289,0.108,0.51,0.108
		C65.808,98.306,66.026,98.286,66.297,98.248z"/>
	<path d="M67.444,89.133v-1.718h1.494v1.718H67.444z M67.444,99.584v-8.815h1.494v8.815H67.444z"/>
	<path d="M70.333,95.176c0-1.632,0.454-2.841,1.361-3.627c0.758-0.653,1.682-0.979,2.772-0.979c1.212,0,2.203,0.397,2.972,1.191
		s1.154,1.891,1.154,3.291c0,1.135-0.17,2.026-0.51,2.677c-0.341,0.65-0.836,1.155-1.486,1.516c-0.65,0.359-1.36,0.539-2.129,0.539
		c-1.234,0-2.231-0.396-2.992-1.188C70.713,97.805,70.333,96.665,70.333,95.176z M71.869,95.176c0,1.129,0.246,1.975,0.739,2.536
		s1.112,0.843,1.859,0.843c0.742,0,1.358-0.282,1.851-0.847s0.739-1.425,0.739-2.581c0-1.091-0.248-1.917-0.743-2.479
		c-0.495-0.562-1.111-0.842-1.847-0.842c-0.747,0-1.367,0.279-1.859,0.838S71.869,94.047,71.869,95.176z"/>
	<path d="M80.021,99.584v-8.815h1.345v1.253c0.647-0.968,1.583-1.452,2.806-1.452c0.531,0,1.02,0.096,1.465,0.286
		c0.445,0.191,0.779,0.441,1,0.752c0.221,0.31,0.376,0.678,0.465,1.104c0.055,0.276,0.083,0.761,0.083,1.453v5.42H85.69v-5.362
		c0-0.608-0.058-1.063-0.174-1.365s-0.322-0.543-0.619-0.723c-0.296-0.18-0.643-0.27-1.042-0.27c-0.636,0-1.186,0.202-1.648,0.606
		c-0.462,0.403-0.693,1.17-0.693,2.299v4.814H80.021z"/>
	<path d="M94.905,98.496c-0.553,0.471-1.086,0.803-1.598,0.996c-0.512,0.194-1.062,0.291-1.648,0.291
		c-0.968,0-1.713-0.236-2.233-0.71c-0.52-0.473-0.78-1.077-0.78-1.813c0-0.432,0.098-0.826,0.295-1.183
		c0.196-0.357,0.454-0.644,0.771-0.859c0.318-0.216,0.677-0.379,1.075-0.489c0.293-0.078,0.736-0.152,1.328-0.225
		c1.207-0.144,2.095-0.315,2.665-0.515c0.005-0.205,0.008-0.335,0.008-0.39c0-0.609-0.141-1.038-0.423-1.287
		c-0.382-0.338-0.949-0.506-1.702-0.506c-0.703,0-1.222,0.123-1.557,0.369c-0.334,0.246-0.582,0.682-0.743,1.307l-1.461-0.199
		c0.133-0.625,0.352-1.13,0.656-1.515s0.744-0.681,1.32-0.888c0.576-0.208,1.242-0.312,2-0.312c0.752,0,1.364,0.089,1.834,0.266
		s0.816,0.399,1.038,0.668s0.376,0.607,0.465,1.017c0.05,0.255,0.075,0.715,0.075,1.379v1.992c0,1.389,0.032,2.267,0.095,2.635
		c0.064,0.368,0.19,0.721,0.378,1.059h-1.561C95.049,99.274,94.949,98.912,94.905,98.496z M94.78,95.16
		c-0.542,0.221-1.356,0.409-2.44,0.564c-0.614,0.088-1.049,0.188-1.303,0.299c-0.254,0.11-0.451,0.272-0.589,0.485
		s-0.208,0.449-0.208,0.71c0,0.398,0.151,0.73,0.452,0.996c0.302,0.266,0.743,0.398,1.324,0.398c0.576,0,1.087-0.126,1.536-0.378
		s0.777-0.597,0.988-1.034c0.161-0.337,0.241-0.835,0.241-1.494V95.16z"/>
	<path d="M98.251,99.584V87.415h1.494v12.169H98.251z"/>
	<path d="M105.781,95.674l1.519-0.133c0.072,0.609,0.239,1.108,0.502,1.499c0.263,0.39,0.671,0.705,1.224,0.946
		c0.553,0.24,1.176,0.361,1.868,0.361c0.614,0,1.157-0.092,1.627-0.274s0.82-0.433,1.05-0.751c0.23-0.318,0.345-0.666,0.345-1.042
		c0-0.382-0.111-0.715-0.332-1s-0.586-0.524-1.096-0.718c-0.327-0.128-1.049-0.325-2.167-0.594s-1.901-0.521-2.349-0.76
		c-0.581-0.305-1.014-0.682-1.299-1.133c-0.285-0.451-0.428-0.956-0.428-1.516c0-0.613,0.174-1.188,0.523-1.722
		s0.858-0.939,1.527-1.216c0.669-0.277,1.414-0.416,2.233-0.416c0.902,0,1.697,0.146,2.387,0.437
		c0.688,0.29,1.219,0.718,1.589,1.282s0.57,1.203,0.598,1.918l-1.544,0.115c-0.083-0.769-0.364-1.35-0.842-1.742
		c-0.479-0.394-1.186-0.59-2.121-0.59c-0.974,0-1.684,0.179-2.129,0.535c-0.446,0.357-0.668,0.787-0.668,1.291
		c0,0.438,0.158,0.797,0.473,1.079c0.31,0.282,1.119,0.571,2.428,0.867c1.309,0.296,2.207,0.555,2.694,0.776
		c0.708,0.326,1.231,0.74,1.569,1.241s0.506,1.077,0.506,1.73c0,0.647-0.186,1.258-0.556,1.83c-0.371,0.573-0.903,1.019-1.598,1.337
		c-0.695,0.318-1.477,0.477-2.345,0.477c-1.101,0-2.024-0.16-2.768-0.48c-0.745-0.321-1.328-0.805-1.752-1.449
		C106.026,97.217,105.803,96.488,105.781,95.674z"/>
	<path d="M122.906,96.355l1.469,0.19c-0.161,1.013-0.571,1.806-1.233,2.378c-0.661,0.573-1.473,0.859-2.436,0.859
		c-1.207,0-2.176-0.395-2.91-1.183c-0.733-0.789-1.1-1.919-1.1-3.392c0-0.951,0.158-1.784,0.473-2.498s0.795-1.249,1.44-1.606
		c0.645-0.356,1.346-0.535,2.104-0.535c0.958,0,1.74,0.242,2.349,0.727s0.999,1.172,1.17,2.063l-1.453,0.224
		c-0.138-0.592-0.383-1.037-0.735-1.336c-0.351-0.299-0.776-0.448-1.274-0.448c-0.752,0-1.364,0.27-1.834,0.81
		c-0.47,0.539-0.706,1.393-0.706,2.561c0,1.185,0.227,2.045,0.681,2.582c0.454,0.536,1.046,0.805,1.776,0.805
		c0.586,0,1.076-0.18,1.469-0.539C122.552,97.655,122.801,97.102,122.906,96.355z"/>
	<path d="M125.339,89.133v-1.718h1.494v1.718H125.339z M125.339,99.584v-8.815h1.494v8.815H125.339z"/>
	<path d="M134.819,96.745l1.544,0.19c-0.244,0.902-0.694,1.603-1.353,2.101s-1.5,0.747-2.523,0.747c-1.29,0-2.312-0.397-3.067-1.191
		c-0.756-0.794-1.133-1.907-1.133-3.341c0-1.483,0.382-2.634,1.146-3.453s1.754-1.229,2.972-1.229c1.179,0,2.142,0.401,2.889,1.204
		c0.747,0.802,1.121,1.931,1.121,3.387c0,0.088-0.003,0.221-0.008,0.398h-6.574c0.055,0.968,0.329,1.709,0.822,2.225
		c0.493,0.514,1.107,0.771,1.843,0.771c0.548,0,1.016-0.144,1.403-0.432S134.592,97.376,134.819,96.745z M129.914,94.33h4.922
		c-0.066-0.742-0.254-1.298-0.564-1.669c-0.476-0.575-1.093-0.863-1.851-0.863c-0.686,0-1.263,0.229-1.731,0.688
		C130.222,92.946,129.963,93.561,129.914,94.33z"/>
	<path d="M137.917,99.584v-8.815h1.345v1.253c0.647-0.968,1.583-1.452,2.806-1.452c0.531,0,1.02,0.096,1.465,0.286
		c0.445,0.191,0.779,0.441,1,0.752c0.221,0.31,0.376,0.678,0.465,1.104c0.055,0.276,0.083,0.761,0.083,1.453v5.42h-1.494v-5.362
		c0-0.608-0.058-1.063-0.174-1.365s-0.322-0.543-0.619-0.723c-0.296-0.18-0.643-0.27-1.042-0.27c-0.636,0-1.186,0.202-1.648,0.606
		c-0.462,0.403-0.693,1.17-0.693,2.299v4.814H137.917z"/>
	<path d="M150.31,98.248l0.216,1.319c-0.42,0.089-0.797,0.133-1.129,0.133c-0.542,0-0.963-0.086-1.262-0.257
		c-0.299-0.172-0.509-0.397-0.631-0.677s-0.183-0.868-0.183-1.765v-5.071h-1.096v-1.162h1.096v-2.183l1.486-0.896v3.079h1.502v1.162
		h-1.502v5.155c0,0.426,0.026,0.699,0.079,0.821c0.053,0.122,0.139,0.219,0.258,0.29c0.119,0.072,0.289,0.108,0.51,0.108
		C149.82,98.306,150.039,98.286,150.31,98.248z"/>
	<path d="M151.457,89.133v-1.718h1.494v1.718H151.457z M151.457,99.584v-8.815h1.494v8.815H151.457z"/>
	<path d="M155.259,99.584v-7.653h-1.32v-1.162h1.32V89.83c0-0.592,0.053-1.031,0.158-1.319c0.144-0.388,0.397-0.701,0.759-0.942
		c0.363-0.24,0.871-0.361,1.523-0.361c0.42,0,0.885,0.051,1.395,0.15l-0.224,1.303c-0.31-0.056-0.603-0.083-0.88-0.083
		c-0.454,0-0.775,0.097-0.963,0.29c-0.188,0.194-0.282,0.557-0.282,1.088v0.813h1.718v1.162h-1.718v7.653H155.259z"/>
	<path d="M159.311,89.133v-1.718h1.494v1.718H159.311z M159.311,99.584v-8.815h1.494v8.815H159.311z"/>
	<path d="M168.508,96.355l1.469,0.19c-0.161,1.013-0.571,1.806-1.233,2.378c-0.661,0.573-1.473,0.859-2.436,0.859
		c-1.207,0-2.176-0.395-2.91-1.183c-0.733-0.789-1.1-1.919-1.1-3.392c0-0.951,0.158-1.784,0.473-2.498s0.795-1.249,1.44-1.606
		c0.645-0.356,1.346-0.535,2.104-0.535c0.958,0,1.74,0.242,2.349,0.727s0.999,1.172,1.17,2.063l-1.453,0.224
		c-0.138-0.592-0.383-1.037-0.735-1.336c-0.351-0.299-0.776-0.448-1.274-0.448c-0.752,0-1.364,0.27-1.834,0.81
		c-0.47,0.539-0.706,1.393-0.706,2.561c0,1.185,0.227,2.045,0.681,2.582c0.454,0.536,1.046,0.805,1.776,0.805
		c0.586,0,1.076-0.18,1.469-0.539C168.154,97.655,168.403,97.102,168.508,96.355z"/>
	<path d="M184.207,95.317l1.609,0.407c-0.338,1.322-0.945,2.331-1.822,3.025s-1.949,1.041-3.215,1.041
		c-1.313,0-2.379-0.267-3.201-0.801c-0.822-0.534-1.447-1.307-1.876-2.32c-0.429-1.012-0.644-2.1-0.644-3.262
		c0-1.268,0.242-2.373,0.727-3.316c0.484-0.943,1.173-1.66,2.066-2.149c0.894-0.49,1.878-0.735,2.951-0.735
		c1.219,0,2.242,0.311,3.072,0.93c0.83,0.62,1.408,1.492,1.734,2.615l-1.586,0.373c-0.281-0.885-0.691-1.529-1.229-1.934
		s-1.211-0.605-2.025-0.605c-0.936,0-1.717,0.224-2.344,0.672c-0.629,0.448-1.07,1.05-1.325,1.806
		c-0.254,0.755-0.382,1.534-0.382,2.337c0,1.034,0.151,1.938,0.452,2.71c0.302,0.771,0.771,1.349,1.407,1.73
		c0.637,0.382,1.326,0.573,2.068,0.573c0.9,0,1.664-0.261,2.291-0.781C183.563,97.113,183.984,96.341,184.207,95.317z"/>
	<path d="M186.73,95.176c0-1.632,0.454-2.841,1.361-3.627c0.758-0.653,1.683-0.979,2.772-0.979c1.212,0,2.202,0.397,2.972,1.191
		s1.154,1.891,1.154,3.291c0,1.135-0.171,2.026-0.511,2.677c-0.341,0.65-0.836,1.155-1.486,1.516
		c-0.65,0.359-1.359,0.539-2.129,0.539c-1.234,0-2.231-0.396-2.992-1.188C187.111,97.805,186.73,96.665,186.73,95.176z
		 M188.266,95.176c0,1.129,0.247,1.975,0.739,2.536s1.112,0.843,1.859,0.843c0.741,0,1.358-0.282,1.851-0.847
		c0.493-0.564,0.739-1.425,0.739-2.581c0-1.091-0.248-1.917-0.743-2.479s-1.11-0.842-1.847-0.842c-0.747,0-1.367,0.279-1.859,0.838
		S188.266,94.047,188.266,95.176z"/>
	<path d="M196.419,99.584v-8.815h1.344v1.253c0.648-0.968,1.583-1.452,2.807-1.452c0.531,0,1.02,0.096,1.465,0.286
		c0.445,0.191,0.778,0.441,1,0.752c0.222,0.31,0.376,0.678,0.465,1.104c0.056,0.276,0.083,0.761,0.083,1.453v5.42h-1.494v-5.362
		c0-0.608-0.058-1.063-0.175-1.365c-0.115-0.302-0.322-0.543-0.618-0.723s-0.644-0.27-1.042-0.27c-0.636,0-1.186,0.202-1.647,0.606
		c-0.462,0.403-0.692,1.17-0.692,2.299v4.814H196.419z"/>
	<path d="M205.907,99.584v-7.653h-1.319v-1.162h1.319V89.83c0-0.592,0.053-1.031,0.157-1.319c0.145-0.388,0.397-0.701,0.76-0.942
		c0.362-0.24,0.87-0.361,1.523-0.361c0.421,0,0.886,0.051,1.395,0.15l-0.225,1.303c-0.31-0.056-0.603-0.083-0.879-0.083
		c-0.454,0-0.775,0.097-0.963,0.29c-0.188,0.194-0.283,0.557-0.283,1.088v0.813h1.719v1.162h-1.719v7.653H205.907z"/>
	<path d="M215.985,96.745l1.544,0.19c-0.243,0.902-0.694,1.603-1.354,2.101c-0.658,0.498-1.499,0.747-2.523,0.747
		c-1.289,0-2.312-0.397-3.066-1.191c-0.756-0.794-1.133-1.907-1.133-3.341c0-1.483,0.381-2.634,1.145-3.453s1.755-1.229,2.973-1.229
		c1.178,0,2.141,0.401,2.889,1.204c0.746,0.802,1.12,1.931,1.12,3.387c0,0.088-0.003,0.221-0.009,0.398h-6.574
		c0.056,0.968,0.33,1.709,0.822,2.225c0.492,0.514,1.106,0.771,1.843,0.771c0.548,0,1.016-0.144,1.403-0.432
		C215.451,97.835,215.759,97.376,215.985,96.745z M211.08,94.33h4.922c-0.066-0.742-0.255-1.298-0.564-1.669
		c-0.476-0.575-1.093-0.863-1.852-0.863c-0.686,0-1.263,0.229-1.73,0.688C211.388,92.946,211.129,93.561,211.08,94.33z"/>
	<path d="M219.064,99.584v-8.815h1.346v1.337c0.343-0.626,0.659-1.038,0.95-1.237c0.29-0.199,0.61-0.299,0.958-0.299
		c0.504,0,1.016,0.16,1.536,0.481l-0.515,1.387c-0.365-0.217-0.73-0.324-1.096-0.324c-0.326,0-0.62,0.099-0.88,0.295
		s-0.445,0.469-0.556,0.817c-0.166,0.531-0.25,1.112-0.25,1.743v4.615H219.064z"/>
	<path d="M230.455,96.745l1.544,0.19c-0.243,0.902-0.694,1.603-1.354,2.101c-0.658,0.498-1.499,0.747-2.523,0.747
		c-1.289,0-2.312-0.397-3.066-1.191c-0.756-0.794-1.133-1.907-1.133-3.341c0-1.483,0.381-2.634,1.145-3.453s1.755-1.229,2.973-1.229
		c1.178,0,2.141,0.401,2.889,1.204c0.746,0.802,1.12,1.931,1.12,3.387c0,0.088-0.003,0.221-0.009,0.398h-6.574
		c0.056,0.968,0.33,1.709,0.822,2.225c0.492,0.514,1.106,0.771,1.843,0.771c0.548,0,1.016-0.144,1.403-0.432
		C229.921,97.835,230.229,97.376,230.455,96.745z M225.55,94.33h4.922c-0.066-0.742-0.255-1.298-0.564-1.669
		c-0.476-0.575-1.093-0.863-1.852-0.863c-0.686,0-1.263,0.229-1.73,0.688C225.857,92.946,225.599,93.561,225.55,94.33z"/>
	<path d="M233.552,99.584v-8.815h1.344v1.253c0.648-0.968,1.583-1.452,2.807-1.452c0.531,0,1.02,0.096,1.465,0.286
		c0.445,0.191,0.778,0.441,1,0.752c0.222,0.31,0.376,0.678,0.465,1.104c0.056,0.276,0.083,0.761,0.083,1.453v5.42h-1.494v-5.362
		c0-0.608-0.058-1.063-0.175-1.365c-0.115-0.302-0.322-0.543-0.618-0.723s-0.644-0.27-1.042-0.27c-0.636,0-1.186,0.202-1.647,0.606
		c-0.462,0.403-0.692,1.17-0.692,2.299v4.814H233.552z"/>
	<path d="M248.436,96.355l1.469,0.19c-0.16,1.013-0.571,1.806-1.232,2.378c-0.661,0.573-1.473,0.859-2.436,0.859
		c-1.207,0-2.177-0.395-2.91-1.183c-0.733-0.789-1.1-1.919-1.1-3.392c0-0.951,0.158-1.784,0.473-2.498
		c0.316-0.714,0.796-1.249,1.44-1.606c0.645-0.356,1.347-0.535,2.104-0.535c0.957,0,1.74,0.242,2.35,0.727
		c0.608,0.484,0.998,1.172,1.17,2.063l-1.453,0.224c-0.138-0.592-0.383-1.037-0.734-1.336s-0.775-0.448-1.273-0.448
		c-0.753,0-1.364,0.27-1.835,0.81c-0.471,0.539-0.706,1.393-0.706,2.561c0,1.185,0.228,2.045,0.682,2.582
		c0.453,0.536,1.045,0.805,1.775,0.805c0.587,0,1.077-0.18,1.47-0.539C248.081,97.655,248.33,97.102,248.436,96.355z"/>
	<path d="M256.895,96.745l1.544,0.19c-0.243,0.902-0.694,1.603-1.354,2.101c-0.658,0.498-1.499,0.747-2.523,0.747
		c-1.289,0-2.312-0.397-3.066-1.191c-0.756-0.794-1.133-1.907-1.133-3.341c0-1.483,0.381-2.634,1.145-3.453s1.755-1.229,2.973-1.229
		c1.178,0,2.141,0.401,2.889,1.204c0.746,0.802,1.12,1.931,1.12,3.387c0,0.088-0.003,0.221-0.009,0.398h-6.574
		c0.056,0.968,0.33,1.709,0.822,2.225c0.492,0.514,1.106,0.771,1.843,0.771c0.548,0,1.016-0.144,1.403-0.432
		C256.36,97.835,256.668,97.376,256.895,96.745z M251.989,94.33h4.922c-0.066-0.742-0.255-1.298-0.564-1.669
		c-0.476-0.575-1.093-0.863-1.852-0.863c-0.686,0-1.263,0.229-1.73,0.688C252.297,92.946,252.038,93.561,251.989,94.33z"/>
	<path d="M263.811,95.932V94.43h4.591v1.502H263.811z"/>
	<path d="M279.344,99.584h-1.494v-9.521c-0.36,0.344-0.832,0.687-1.416,1.029c-0.584,0.344-1.107,0.601-1.572,0.772V90.42
		c0.835-0.393,1.565-0.869,2.191-1.428c0.625-0.559,1.067-1.102,1.328-1.627h0.963V99.584z"/>
	<path d="M283.071,96.77l1.436-0.133c0.122,0.676,0.354,1.165,0.697,1.47c0.344,0.305,0.783,0.456,1.32,0.456
		c0.459,0,0.862-0.104,1.208-0.314c0.346-0.211,0.629-0.491,0.851-0.843s0.406-0.826,0.557-1.424
		c0.148-0.598,0.224-1.206,0.224-1.826c0-0.066-0.003-0.166-0.009-0.299c-0.299,0.476-0.706,0.862-1.224,1.158
		s-1.078,0.444-1.681,0.444c-1.008,0-1.859-0.365-2.557-1.096s-1.047-1.693-1.047-2.889c0-1.234,0.364-2.228,1.092-2.98
		s1.64-1.129,2.735-1.129c0.791,0,1.515,0.213,2.171,0.639c0.655,0.427,1.153,1.034,1.494,1.822c0.34,0.789,0.51,1.93,0.51,3.424
		c0,1.556-0.168,2.794-0.506,3.715c-0.338,0.922-0.84,1.623-1.507,2.104s-1.448,0.722-2.345,0.722c-0.952,0-1.729-0.264-2.332-0.792
		C283.556,98.471,283.193,97.728,283.071,96.77z M289.188,91.399c0-0.857-0.228-1.538-0.685-2.042
		c-0.456-0.504-1.006-0.756-1.647-0.756c-0.664,0-1.242,0.271-1.734,0.814c-0.493,0.542-0.739,1.244-0.739,2.107
		c0,0.775,0.233,1.404,0.701,1.889s1.045,0.727,1.731,0.727c0.691,0,1.26-0.242,1.705-0.727S289.188,92.257,289.188,91.399z"/>
	<path d="M295.655,98.248l0.216,1.319c-0.421,0.089-0.797,0.133-1.129,0.133c-0.542,0-0.963-0.086-1.262-0.257
		c-0.299-0.172-0.509-0.397-0.631-0.677s-0.183-0.868-0.183-1.765v-5.071h-1.096v-1.162h1.096v-2.183l1.486-0.896v3.079h1.502v1.162
		h-1.502v5.155c0,0.426,0.025,0.699,0.078,0.821s0.139,0.219,0.258,0.29c0.119,0.072,0.289,0.108,0.51,0.108
		C295.165,98.306,295.384,98.286,295.655,98.248z"/>
	<path d="M296.794,99.584V87.415h1.494v4.366c0.697-0.808,1.576-1.212,2.639-1.212c0.653,0,1.221,0.129,1.702,0.386
		c0.481,0.258,0.826,0.613,1.033,1.066c0.208,0.454,0.312,1.113,0.312,1.977v5.586h-1.494v-5.586c0-0.748-0.162-1.291-0.485-1.632
		c-0.324-0.34-0.782-0.511-1.374-0.511c-0.442,0-0.859,0.115-1.249,0.345c-0.391,0.229-0.669,0.541-0.835,0.935
		c-0.166,0.393-0.248,0.935-0.248,1.627v4.822H296.794z"/>
	<path d="M309.744,95.932V94.43h4.591v1.502H309.744z"/>
	<path d="M327.502,98.148v1.436h-8.044c-0.011-0.359,0.047-0.705,0.175-1.037c0.204-0.549,0.532-1.088,0.983-1.619
		s1.103-1.146,1.954-1.843c1.323-1.085,2.217-1.943,2.682-2.577s0.697-1.232,0.697-1.797c0-0.593-0.212-1.092-0.635-1.499
		c-0.424-0.406-0.976-0.61-1.656-0.61c-0.72,0-1.295,0.217-1.727,0.648s-0.65,1.029-0.656,1.793l-1.535-0.158
		c0.105-1.146,0.501-2.019,1.188-2.619c0.686-0.601,1.607-0.9,2.764-0.9c1.168,0,2.092,0.324,2.772,0.971
		c0.681,0.648,1.021,1.45,1.021,2.408c0,0.486-0.1,0.965-0.299,1.436s-0.529,0.966-0.991,1.486c-0.462,0.52-1.23,1.233-2.304,2.141
		c-0.896,0.753-1.472,1.264-1.727,1.532s-0.465,0.538-0.631,0.81H327.502z"/>
	<path d="M328.779,93.582c0-1.438,0.148-2.597,0.444-3.474s0.736-1.554,1.32-2.029s1.318-0.714,2.204-0.714
		c0.652,0,1.226,0.132,1.718,0.395s0.899,0.642,1.22,1.137c0.321,0.495,0.573,1.099,0.756,1.81s0.273,1.67,0.273,2.876
		c0,1.428-0.146,2.581-0.439,3.458s-0.731,1.555-1.315,2.033s-1.321,0.718-2.212,0.718c-1.174,0-2.095-0.42-2.765-1.262
		C329.181,97.518,328.779,95.868,328.779,93.582z M330.315,93.582c0,1.998,0.233,3.328,0.701,3.989s1.045,0.991,1.731,0.991
		c0.686,0,1.263-0.332,1.73-0.996s0.701-1.992,0.701-3.984c0-2.003-0.233-3.334-0.701-3.992s-1.051-0.988-1.748-0.988
		c-0.686,0-1.233,0.291-1.643,0.872C330.572,90.215,330.315,91.585,330.315,93.582z"/>
	<path d="M341.589,98.248l0.216,1.319c-0.421,0.089-0.797,0.133-1.129,0.133c-0.542,0-0.963-0.086-1.262-0.257
		c-0.299-0.172-0.509-0.397-0.631-0.677s-0.183-0.868-0.183-1.765v-5.071h-1.096v-1.162h1.096v-2.183l1.486-0.896v3.079h1.502v1.162
		h-1.502v5.155c0,0.426,0.025,0.699,0.078,0.821s0.139,0.219,0.258,0.29c0.119,0.072,0.289,0.108,0.51,0.108
		C341.099,98.306,341.317,98.286,341.589,98.248z"/>
	<path d="M342.728,99.584V87.415h1.494v4.366c0.697-0.808,1.576-1.212,2.639-1.212c0.653,0,1.221,0.129,1.702,0.386
		c0.481,0.258,0.826,0.613,1.033,1.066c0.208,0.454,0.312,1.113,0.312,1.977v5.586h-1.494v-5.586c0-0.748-0.162-1.291-0.485-1.632
		c-0.324-0.34-0.782-0.511-1.374-0.511c-0.442,0-0.859,0.115-1.249,0.345c-0.391,0.229-0.669,0.541-0.835,0.935
		c-0.166,0.393-0.248,0.935-0.248,1.627v4.822H342.728z"/>
	<path d="M355.901,95.674l1.52-0.133c0.071,0.609,0.239,1.108,0.502,1.499c0.263,0.39,0.671,0.705,1.225,0.946
		c0.553,0.24,1.176,0.361,1.867,0.361c0.614,0,1.156-0.092,1.627-0.274s0.82-0.433,1.05-0.751s0.345-0.666,0.345-1.042
		c0-0.382-0.11-0.715-0.332-1s-0.587-0.524-1.096-0.718c-0.326-0.128-1.049-0.325-2.166-0.594c-1.118-0.269-1.901-0.521-2.35-0.76
		c-0.581-0.305-1.014-0.682-1.299-1.133s-0.428-0.956-0.428-1.516c0-0.613,0.174-1.188,0.523-1.722
		c0.348-0.534,0.857-0.939,1.527-1.216c0.669-0.277,1.413-0.416,2.232-0.416c0.902,0,1.697,0.146,2.387,0.437
		c0.688,0.29,1.219,0.718,1.59,1.282c0.37,0.564,0.569,1.203,0.598,1.918l-1.545,0.115c-0.082-0.769-0.363-1.35-0.842-1.742
		c-0.479-0.394-1.186-0.59-2.121-0.59c-0.974,0-1.684,0.179-2.129,0.535c-0.445,0.357-0.668,0.787-0.668,1.291
		c0,0.438,0.157,0.797,0.473,1.079c0.31,0.282,1.119,0.571,2.428,0.867s2.207,0.555,2.693,0.776c0.709,0.326,1.231,0.74,1.569,1.241
		s0.507,1.077,0.507,1.73c0,0.647-0.186,1.258-0.557,1.83c-0.371,0.573-0.903,1.019-1.598,1.337s-1.477,0.477-2.346,0.477
		c-1.101,0-2.023-0.16-2.768-0.48c-0.744-0.321-1.328-0.805-1.752-1.449C356.146,97.217,355.924,96.488,355.901,95.674z"/>
	<path d="M373.31,96.745l1.544,0.19c-0.243,0.902-0.694,1.603-1.354,2.101c-0.658,0.498-1.499,0.747-2.523,0.747
		c-1.289,0-2.312-0.397-3.066-1.191c-0.756-0.794-1.133-1.907-1.133-3.341c0-1.483,0.381-2.634,1.145-3.453s1.755-1.229,2.973-1.229
		c1.178,0,2.141,0.401,2.889,1.204c0.746,0.802,1.12,1.931,1.12,3.387c0,0.088-0.003,0.221-0.009,0.398h-6.574
		c0.056,0.968,0.33,1.709,0.822,2.225c0.492,0.514,1.106,0.771,1.843,0.771c0.548,0,1.016-0.144,1.403-0.432
		C372.775,97.835,373.083,97.376,373.31,96.745z M368.404,94.33h4.922c-0.066-0.742-0.255-1.298-0.564-1.669
		c-0.476-0.575-1.093-0.863-1.852-0.863c-0.686,0-1.263,0.229-1.73,0.688C368.712,92.946,368.453,93.561,368.404,94.33z"/>
	<path d="M376.406,102.963V90.769h1.361v1.146c0.32-0.448,0.683-0.784,1.087-1.009c0.404-0.224,0.894-0.336,1.47-0.336
		c0.752,0,1.416,0.193,1.992,0.581c0.575,0.388,1.01,0.934,1.303,1.64c0.293,0.705,0.439,1.479,0.439,2.319
		c0,0.902-0.161,1.715-0.485,2.437c-0.323,0.723-0.794,1.275-1.411,1.66s-1.266,0.577-1.946,0.577c-0.498,0-0.945-0.105-1.341-0.315
		s-0.721-0.476-0.975-0.797v4.292H376.406z M377.759,95.227c0,1.134,0.229,1.973,0.688,2.515c0.46,0.542,1.016,0.813,1.669,0.813
		c0.664,0,1.232-0.281,1.706-0.843c0.473-0.562,0.709-1.432,0.709-2.61c0-1.123-0.23-1.965-0.692-2.523s-1.015-0.838-1.656-0.838
		c-0.637,0-1.199,0.297-1.689,0.892C378.004,93.227,377.759,94.092,377.759,95.227z"/>
	<path d="M388.8,98.248l0.216,1.319c-0.421,0.089-0.797,0.133-1.129,0.133c-0.542,0-0.963-0.086-1.262-0.257
		c-0.299-0.172-0.509-0.397-0.631-0.677s-0.183-0.868-0.183-1.765v-5.071h-1.096v-1.162h1.096v-2.183l1.486-0.896v3.079h1.502v1.162
		h-1.502v5.155c0,0.426,0.025,0.699,0.078,0.821s0.139,0.219,0.258,0.29c0.119,0.072,0.289,0.108,0.51,0.108
		C388.31,98.306,388.528,98.286,388.8,98.248z"/>
	<path d="M395.973,96.745l1.544,0.19c-0.243,0.902-0.694,1.603-1.354,2.101c-0.658,0.498-1.499,0.747-2.523,0.747
		c-1.289,0-2.312-0.397-3.066-1.191c-0.756-0.794-1.133-1.907-1.133-3.341c0-1.483,0.381-2.634,1.145-3.453s1.755-1.229,2.973-1.229
		c1.178,0,2.141,0.401,2.889,1.204c0.746,0.802,1.12,1.931,1.12,3.387c0,0.088-0.003,0.221-0.009,0.398h-6.574
		c0.056,0.968,0.33,1.709,0.822,2.225c0.492,0.514,1.106,0.771,1.843,0.771c0.548,0,1.016-0.144,1.403-0.432
		C395.438,97.835,395.746,97.376,395.973,96.745z M391.067,94.33h4.922c-0.066-0.742-0.255-1.298-0.564-1.669
		c-0.476-0.575-1.093-0.863-1.852-0.863c-0.686,0-1.263,0.229-1.73,0.688C391.375,92.946,391.116,93.561,391.067,94.33z"/>
	<path d="M399.07,99.584v-8.815h1.336v1.237c0.276-0.432,0.645-0.779,1.104-1.042c0.46-0.263,0.982-0.395,1.569-0.395
		c0.653,0,1.188,0.136,1.606,0.407c0.418,0.271,0.712,0.649,0.884,1.137c0.697-1.029,1.604-1.544,2.723-1.544
		c0.874,0,1.547,0.242,2.017,0.727c0.471,0.484,0.706,1.229,0.706,2.237v6.051h-1.485v-5.553c0-0.598-0.049-1.028-0.146-1.291
		s-0.272-0.475-0.527-0.635c-0.255-0.161-0.554-0.241-0.896-0.241c-0.62,0-1.135,0.206-1.544,0.618s-0.614,1.072-0.614,1.98v5.121
		h-1.494v-5.728c0-0.664-0.122-1.162-0.365-1.494s-0.642-0.498-1.195-0.498c-0.421,0-0.81,0.11-1.166,0.332
		c-0.357,0.222-0.616,0.545-0.776,0.972c-0.16,0.426-0.24,1.04-0.24,1.842v4.574H399.07z"/>
	<path d="M414.285,99.584h-1.386V87.415h1.494v4.341c0.631-0.791,1.437-1.187,2.415-1.187c0.543,0,1.056,0.109,1.54,0.328
		s0.883,0.525,1.195,0.921s0.558,0.873,0.735,1.432c0.177,0.56,0.266,1.157,0.266,1.793c0,1.512-0.374,2.679-1.121,3.504
		c-0.747,0.824-1.644,1.236-2.689,1.236c-1.04,0-1.856-0.435-2.449-1.303V99.584z M414.27,95.109c0,1.058,0.144,1.821,0.432,2.291
		c0.47,0.77,1.106,1.154,1.908,1.154c0.653,0,1.218-0.283,1.693-0.851c0.477-0.567,0.715-1.413,0.715-2.536
		c0-1.151-0.229-2-0.686-2.549c-0.456-0.547-1.008-0.821-1.656-0.821c-0.652,0-1.217,0.283-1.693,0.851
		C414.507,93.216,414.27,94.036,414.27,95.109z"/>
	<path d="M428.074,96.745l1.544,0.19c-0.243,0.902-0.694,1.603-1.354,2.101c-0.658,0.498-1.499,0.747-2.523,0.747
		c-1.289,0-2.312-0.397-3.066-1.191c-0.756-0.794-1.133-1.907-1.133-3.341c0-1.483,0.381-2.634,1.145-3.453s1.755-1.229,2.973-1.229
		c1.178,0,2.141,0.401,2.889,1.204c0.746,0.802,1.12,1.931,1.12,3.387c0,0.088-0.003,0.221-0.009,0.398h-6.574
		c0.056,0.968,0.33,1.709,0.822,2.225c0.492,0.514,1.106,0.771,1.843,0.771c0.548,0,1.016-0.144,1.403-0.432
		C427.54,97.835,427.848,97.376,428.074,96.745z M423.169,94.33h4.922c-0.066-0.742-0.255-1.298-0.564-1.669
		c-0.476-0.575-1.093-0.863-1.852-0.863c-0.686,0-1.263,0.229-1.73,0.688C423.477,92.946,423.218,93.561,423.169,94.33z"/>
	<path d="M431.153,99.584v-8.815h1.346v1.337c0.343-0.626,0.659-1.038,0.95-1.237c0.29-0.199,0.61-0.299,0.958-0.299
		c0.504,0,1.016,0.16,1.536,0.481l-0.515,1.387c-0.365-0.217-0.73-0.324-1.096-0.324c-0.326,0-0.62,0.099-0.88,0.295
		s-0.445,0.469-0.556,0.817c-0.166,0.531-0.25,1.112-0.25,1.743v4.615H431.153z"/>
	<path d="M448.347,98.148v1.436h-8.044c-0.011-0.359,0.047-0.705,0.175-1.037c0.204-0.549,0.532-1.088,0.983-1.619
		s1.103-1.146,1.954-1.843c1.323-1.085,2.217-1.943,2.682-2.577s0.697-1.232,0.697-1.797c0-0.593-0.212-1.092-0.635-1.499
		c-0.424-0.406-0.976-0.61-1.656-0.61c-0.72,0-1.295,0.217-1.727,0.648s-0.65,1.029-0.656,1.793l-1.535-0.158
		c0.105-1.146,0.501-2.019,1.188-2.619c0.686-0.601,1.607-0.9,2.764-0.9c1.168,0,2.092,0.324,2.772,0.971
		c0.681,0.648,1.021,1.45,1.021,2.408c0,0.486-0.1,0.965-0.299,1.436s-0.529,0.966-0.991,1.486c-0.462,0.52-1.23,1.233-2.304,2.141
		c-0.896,0.753-1.472,1.264-1.727,1.532s-0.465,0.538-0.631,0.81H448.347z"/>
	<path d="M449.625,93.582c0-1.438,0.148-2.597,0.444-3.474s0.736-1.554,1.32-2.029s1.318-0.714,2.204-0.714
		c0.652,0,1.226,0.132,1.718,0.395s0.899,0.642,1.22,1.137c0.321,0.495,0.573,1.099,0.756,1.81s0.273,1.67,0.273,2.876
		c0,1.428-0.146,2.581-0.439,3.458s-0.731,1.555-1.315,2.033s-1.321,0.718-2.212,0.718c-1.174,0-2.095-0.42-2.765-1.262
		C450.026,97.518,449.625,95.868,449.625,93.582z M451.161,93.582c0,1.998,0.233,3.328,0.701,3.989s1.045,0.991,1.731,0.991
		c0.686,0,1.263-0.332,1.73-0.996s0.701-1.992,0.701-3.984c0-2.003-0.233-3.334-0.701-3.992s-1.051-0.988-1.748-0.988
		c-0.686,0-1.233,0.291-1.643,0.872C451.418,90.215,451.161,91.585,451.161,93.582z"/>
	<path d="M464.386,99.584h-1.494v-9.521c-0.36,0.344-0.832,0.687-1.416,1.029c-0.584,0.344-1.107,0.601-1.572,0.772V90.42
		c0.835-0.393,1.565-0.869,2.191-1.428c0.625-0.559,1.067-1.102,1.328-1.627h0.963V99.584z"/>
	<path d="M470.188,92.984c-0.62-0.227-1.079-0.55-1.378-0.971s-0.448-0.924-0.448-1.511c0-0.886,0.318-1.63,0.954-2.233
		c0.637-0.603,1.483-0.904,2.541-0.904c1.063,0,1.917,0.309,2.564,0.926s0.971,1.368,0.971,2.254c0,0.564-0.147,1.055-0.443,1.473
		s-0.746,0.74-1.35,0.967c0.748,0.244,1.316,0.637,1.706,1.18c0.391,0.542,0.585,1.189,0.585,1.941c0,1.041-0.367,1.915-1.104,2.623
		c-0.736,0.709-1.704,1.063-2.905,1.063s-2.169-0.355-2.905-1.066s-1.104-1.598-1.104-2.66c0-0.791,0.2-1.454,0.602-1.988
		S469.447,93.179,470.188,92.984z M469.408,96.072c0,0.427,0.101,0.839,0.303,1.237s0.502,0.707,0.9,0.926s0.828,0.327,1.287,0.327
		c0.714,0,1.303-0.229,1.768-0.688s0.697-1.043,0.697-1.751c0-0.72-0.239-1.314-0.718-1.785s-1.077-0.705-1.797-0.705
		c-0.703,0-1.285,0.232-1.747,0.697S469.408,95.375,469.408,96.072z M469.89,90.453c0,0.575,0.186,1.046,0.556,1.411
		c0.371,0.365,0.853,0.548,1.445,0.548c0.575,0,1.047-0.182,1.415-0.544s0.552-0.807,0.552-1.332c0-0.548-0.189-1.009-0.568-1.382
		c-0.379-0.374-0.852-0.561-1.416-0.561c-0.569,0-1.043,0.183-1.419,0.548S469.89,89.944,469.89,90.453z"/>
</g>
</svg>
