<?xml version="1.0"?>
<!DOCTYPE svg PUBLIC "-//W3C//DTD SVG 1.0//EN" "http://www.w3.org/TR/2001/REC-SVG-20010904/DTD/svg10.dtd">
<svg xmlns="http://www.w3.org/2000/svg" xmlns:xlink="http://www.w3.org/1999/xlink" width="320px" height="130px">
<g>
<path fill-rule="evenodd" fill="#220000" d="M 34.0736 68.17 C 31.4903 68.17 29.0736 67.7585 26.8236 66.9356 C 24.5632 66.1023 22.5945 64.8939 20.9174 63.3106 C 19.2716 61.7585 17.9799 59.8367 17.0424 57.545 C 16.0945 55.2637 15.6205 52.7533 15.6205 50.0137 C 15.6205 47.2949 16.1049 44.7741 17.0736 42.4512 C 18.0424 40.1387 19.4017 38.1335 21.1517 36.4356 C 22.8704 34.7689 24.9329 33.4773 27.3392 32.5606 C 29.7454 31.6439 32.3184 31.1856 35.058 31.1856 C 37.0476 31.1856 38.8601 31.4304 40.4955 31.92 C 42.1205 32.42 43.5007 32.9669 44.6361 33.5606 L 46.1986 32.1856 L 48.3861 32.1856 L 48.6205 45.1856 L 46.3861 45.1856 C 45.1257 41.0502 43.61 38.0137 41.8392 36.0762 C 40.0579 34.1491 37.8966 33.1856 35.3549 33.1856 C 32.1778 33.1856 29.7612 34.5866 28.1049 37.3887 C 26.4487 40.2012 25.6205 44.144 25.6205 49.2169 C 25.6205 52.0815 25.8965 54.5242 26.4486 56.545 C 27.0007 58.5762 27.7247 60.2116 28.6205 61.4512 C 29.5788 62.7324 30.7142 63.6752 32.0267 64.2794 C 33.3288 64.8836 34.7716 65.1856 36.3549 65.1856 C 38.6674 65.1856 40.7299 64.5241 42.5424 63.2012 C 44.3549 61.8783 46.0059 59.8731 47.4955 57.1856 L 49.6205 58.4669 C 48.9122 59.9148 48.0997 61.2065 47.183 62.3419 C 46.2663 63.4877 45.2142 64.4721 44.0267 65.295 C 42.7142 66.2012 41.2663 66.9044 39.683 67.4044 C 38.0997 67.9148 36.2299 68.17 34.0736 68.17 z M 66.7611 68.17 C 64.5736 68.17 62.5371 67.8992 60.6517 67.3575 C 58.7559 66.8158 57.1517 66.1752 55.8392 65.4356 L 54.0892 67.17 L 51.9486 67.17 L 51.6205 54.1856 L 53.7299 54.1856 C 54.1987 55.4877 54.8028 56.8575 55.5424 58.295 C 56.2716 59.7325 57.1204 61.019 58.0892 62.1544 C 59.0788 63.3523 60.1934 64.321 61.433 65.0606 C 62.6622 65.8106 64.0997 66.1856 65.7455 66.1856 C 67.9642 66.1856 69.6674 65.5866 70.8549 64.3887 C 72.032 63.2012 72.6205 61.7012 72.6205 59.8887 C 72.6205 58.5241 72.1205 57.3731 71.1205 56.4356 C 70.1205 55.5085 68.5736 54.7065 66.4799 54.0294 C 65.1153 53.5815 63.86 53.1648 62.7142 52.7794 C 61.5684 52.4044 60.4955 52.0189 59.4955 51.6231 C 57.1726 50.6856 55.4486 49.3419 54.3236 47.5919 C 53.1882 45.8419 52.6205 43.8887 52.6205 41.7325 C 52.6205 40.3575 52.9225 39.0398 53.5267 37.7794 C 54.1309 36.519 55.0112 35.3835 56.1674 34.3731 C 57.282 33.4356 58.7038 32.6699 60.433 32.0762 C 62.1622 31.4825 64.0424 31.1856 66.0736 31.1856 C 68.0528 31.1856 69.9069 31.4616 71.6361 32.0137 C 73.3653 32.5762 74.7246 33.1335 75.7142 33.6856 L 77.2611 32.1856 L 79.4486 32.1856 L 79.6517 44.1856 L 77.5892 44.1856 C 77.11 42.8314 76.5475 41.4461 75.9017 40.0294 C 75.2455 38.6127 74.558 37.4356 73.8392 36.4981 C 73.0475 35.4877 72.1413 34.6804 71.1205 34.0762 C 70.0892 33.4824 68.8861 33.1856 67.5111 33.1856 C 65.7819 33.1856 64.3705 33.7324 63.2767 34.8262 C 62.1725 35.9304 61.6205 37.2898 61.6205 38.9044 C 61.6205 40.3106 62.0997 41.4565 63.058 42.3419 C 64.0163 43.2377 65.5059 44.0241 67.5267 44.7012 C 68.7246 45.1074 69.9434 45.5137 71.183 45.92 C 72.4122 46.3367 73.5111 46.7377 74.4799 47.1231 C 76.8132 48.0502 78.5892 49.3262 79.808 50.9512 C 81.0163 52.5762 81.6205 54.5919 81.6205 56.9981 C 81.6205 58.5189 81.2611 59.9877 80.5424 61.4044 C 79.8132 62.8211 78.8341 63.9981 77.6049 64.9356 C 76.2611 65.9773 74.709 66.7741 72.9486 67.3262 C 71.1778 67.8887 69.1153 68.17 66.7611 68.17 z M 104.011 67.17 L 84.2299 67.17 L 84.2299 65.2637 C 84.6778 65.2325 85.3392 65.1804 86.2142 65.1075 C 87.0892 65.045 87.6934 64.946 88.0267 64.8106 C 88.6413 64.571 89.0632 64.2482 89.2924 63.8419 C 89.5111 63.4356 89.6205 62.92 89.6205 62.295 L 89.6205 37.4825 C 89.6205 36.9304 89.5111 36.4408 89.2924 36.0137 C 89.0736 35.5866 88.6517 35.2377 88.0267 34.9669 C 87.6205 34.8106 87.0319 34.644 86.2611 34.4669 C 85.4799 34.2898 84.8028 34.17 84.2299 34.1075 L 84.2299 32.1856 L 104.011 32.1856 L 104.011 34.1075 C 103.511 34.1596 102.886 34.2273 102.136 34.3106 C 101.386 34.4044 100.755 34.5345 100.245 34.7012 C 99.5992 34.9199 99.1674 35.2533 98.9486 35.7012 C 98.7299 36.1491 98.6205 36.6648 98.6205 37.2481 L 98.6205 62.0294 C 98.6205 62.6231 98.735 63.1283 98.9642 63.545 C 99.183 63.9617 99.6096 64.3054 100.245 64.5762 C 100.599 64.722 101.178 64.8627 101.98 64.9981 C 102.782 65.1439 103.459 65.2325 104.011 65.2637 C 104.011 65.2637 104.011 67.17 104.011 67.17 z M 140.62 42.1856 L 138.652 42.1856 C 138.131 40.6544 137.287 39.0137 136.12 37.2637 C 134.953 35.5137 133.881 34.571 132.902 34.4356 C 132.35 34.3731 131.678 34.3158 130.886 34.2637 C 130.084 34.2116 129.397 34.1856 128.824 34.1856 L 127.62 34.1856 L 127.62 61.795 C 127.62 62.3992 127.73 62.9252 127.949 63.3731 C 128.168 63.8314 128.589 64.1908 129.214 64.4512 C 129.599 64.6075 130.199 64.7637 131.011 64.92 C 131.813 65.0762 132.495 65.1856 133.058 65.2481 L 133.058 67.17 L 113.183 67.17 L 113.183 65.2481 C 113.662 65.196 114.339 65.1232 115.214 65.0294 C 116.089 64.9461 116.683 64.8366 116.995 64.7012 C 117.641 64.4408 118.073 64.0866 118.292 63.6387 C 118.511 63.1908 118.62 62.6596 118.62 62.045 L 118.62 34.1856 L 117.417 34.1856 C 116.844 34.1856 116.162 34.2116 115.37 34.2637 C 114.568 34.3158 113.891 34.3731 113.339 34.4356 C 112.36 34.571 111.287 35.5137 110.12 37.2637 C 108.953 39.0137 108.11 40.6544 107.589 42.1856 L 105.62 42.1856 L 105.62 32.1856 L 140.62 32.1856 C 140.62 32.1856 140.62 42.1856 140.62 42.1856 z M 180.683 67.17 L 161.433 67.17 L 161.433 65.2169 C 162.329 65.144 163.386 64.9773 164.605 64.7169 C 165.813 64.4565 166.417 64.1335 166.417 63.7481 C 166.417 63.6127 166.407 63.4617 166.386 63.295 C 166.355 63.1283 166.282 62.8992 166.167 62.6075 L 163.152 55.1856 L 150.949 55.1856 C 150.668 55.8731 150.36 56.6804 150.027 57.6075 C 149.683 58.5346 149.386 59.3627 149.136 60.0919 C 148.824 61.0294 148.641 61.7064 148.589 62.1231 C 148.527 62.5502 148.495 62.847 148.495 63.0137 C 148.495 63.5554 148.897 64.0137 149.699 64.3887 C 150.501 64.7741 151.839 65.0502 153.714 65.2169 L 153.714 67.17 L 139.245 67.17 L 139.245 65.2325 C 139.787 65.2012 140.402 65.1127 141.089 64.9669 C 141.777 64.8315 142.318 64.6387 142.714 64.3887 C 143.391 63.9825 143.97 63.4877 144.449 62.9044 C 144.918 62.3211 145.307 61.6283 145.62 60.8262 C 147.547 56.1387 149.48 51.4408 151.417 46.7325 C 153.355 42.0346 155.491 36.8523 157.824 31.1856 L 162.808 31.1856 C 166.058 39.2273 168.605 45.5814 170.449 50.2481 C 172.293 54.9148 173.865 58.7846 175.167 61.8575 C 175.375 62.3575 175.647 62.8106 175.98 63.2169 C 176.313 63.6231 176.787 64.0137 177.402 64.3887 C 177.871 64.6491 178.412 64.8471 179.027 64.9825 C 179.642 65.1179 180.193 65.2012 180.683 65.2325 C 180.683 65.2325 180.683 67.17 180.683 67.17 z M 162.136 53.1856 L 157.011 39.92 L 151.949 53.1856 C 151.949 53.1856 162.136 53.1856 162.136 53.1856 z" />
<path fill-rule="evenodd" fill="#77933c" d="M 104.748 66.8057 L 84.9673 66.8057 L 84.9673 64.8995 C 85.4152 64.8682 86.0767 64.8161 86.9517 64.7432 C 87.8267 64.6807 88.4309 64.5817 88.7642 64.4463 C 89.3788 64.2067 89.8006 63.8839 90.0298 63.4776 C 90.2486 63.0714 90.3579 62.5557 90.3579 61.9307 L 90.3579 37.1182 C 90.3579 36.5661 90.2486 36.0766 90.0298 35.6495 C 89.8111 35.2224 89.3892 34.8734 88.7642 34.6026 C 88.3579 34.4464 87.7693 34.2797 86.9985 34.1026 C 86.2172 33.9255 85.5402 33.8057 84.9673 33.7432 L 84.9673 31.8213 L 104.748 31.8213 L 104.748 33.7432 C 104.248 33.7953 103.623 33.863 102.873 33.9463 C 102.123 34.0401 101.493 34.1703 100.983 34.337 C 100.337 34.5558 99.9047 34.8891 99.686 35.337 C 99.4672 35.7849 99.3579 36.3005 99.3579 36.8838 L 99.3579 61.6651 C 99.3579 62.2589 99.4725 62.764 99.7017 63.1807 C 99.9204 63.5974 100.348 63.9412 100.983 64.212 C 101.337 64.3578 101.915 64.4984 102.717 64.6338 C 103.519 64.7796 104.196 64.8682 104.748 64.8995 C 104.748 64.8995 104.748 66.8057 104.748 66.8057 z M 141.358 41.8213 L 139.389 41.8213 C 138.868 40.2901 138.025 38.6495 136.858 36.8995 C 135.691 35.1495 134.618 34.2067 133.639 34.0713 C 133.087 34.0088 132.415 33.9516 131.623 33.8995 C 130.821 33.8474 130.134 33.8213 129.561 33.8213 L 128.358 33.8213 L 128.358 61.4307 C 128.358 62.0349 128.467 62.5609 128.686 63.0088 C 128.905 63.4671 129.327 63.8266 129.952 64.087 C 130.337 64.2432 130.936 64.3995 131.748 64.5557 C 132.55 64.712 133.232 64.8213 133.795 64.8838 L 133.795 66.8057 L 113.92 66.8057 L 113.92 64.8838 C 114.399 64.8317 115.077 64.7589 115.952 64.6651 C 116.827 64.5818 117.421 64.4724 117.733 64.337 C 118.379 64.0766 118.811 63.7224 119.03 63.2745 C 119.249 62.8266 119.358 62.2953 119.358 61.6807 L 119.358 33.8213 L 118.155 33.8213 C 117.582 33.8213 116.9 33.8474 116.108 33.8995 C 115.306 33.9516 114.629 34.0088 114.077 34.0713 C 113.098 34.2067 112.025 35.1495 110.858 36.8995 C 109.691 38.6495 108.848 40.2901 108.327 41.8213 L 106.358 41.8213 L 106.358 31.8213 L 141.358 31.8213 C 141.358 31.8213 141.358 41.8213 141.358 41.8213 z" />
<path fill-rule="evenodd" fill="#220000" d="M 21.8863 113.871 L 23.8863 114.106 C 23.7405 115.439 23.23 116.538 22.355 117.403 C 21.48 118.257 20.329 118.684 18.9019 118.684 C 17.704 118.684 16.7301 118.377 15.9801 117.762 C 15.2301 117.137 14.6519 116.288 14.2457 115.215 C 13.8394 114.152 13.6363 112.981 13.6363 111.7 C 13.6363 109.627 14.1155 107.939 15.0738 106.637 C 16.0217 105.345 17.329 104.7 18.9957 104.7 C 20.2978 104.7 21.3811 105.105 22.2457 105.918 C 23.1103 106.73 23.6571 107.897 23.8863 109.418 L 21.8863 109.653 C 21.4384 107.684 20.4592 106.7 18.9488 106.7 C 17.9801 106.7 17.23 107.127 16.6988 107.981 C 16.1571 108.835 15.8863 110.075 15.8863 111.7 C 15.8863 113.346 16.178 114.59 16.7613 115.434 C 17.3342 116.278 18.0946 116.7 19.0425 116.7 C 19.8029 116.7 20.4487 116.419 20.98 115.856 C 21.5113 115.304 21.8134 114.642 21.8863 113.871 z M 31.6363 116.7 L 31.6363 118.684 L 24.6363 118.684 L 24.6363 116.7 L 29.6832 110.7 L 25.0894 110.7 L 25.0894 108.7 L 31.6363 108.7 L 31.6363 110.7 L 26.48 116.7 C 26.48 116.7 31.6363 116.7 31.6363 116.7 z M 39.6363 115.7 L 41.6363 115.7 C 41.3655 116.575 40.8342 117.294 40.0425 117.856 C 39.2404 118.408 38.2404 118.684 37.0425 118.684 C 35.605 118.684 34.4488 118.241 33.5738 117.356 C 32.7092 116.46 32.2769 115.252 32.2769 113.731 C 32.2769 112.283 32.7249 111.079 33.6207 110.121 C 34.5165 109.173 35.7352 108.7 37.2769 108.7 C 38.7873 108.7 39.954 109.23 40.7769 110.293 C 41.5998 111.366 42.0113 112.741 42.0113 114.418 L 41.9957 114.7 L 34.6363 114.7 C 34.6363 115.127 34.7092 115.471 34.855 115.731 C 34.9904 115.991 35.2665 116.215 35.6832 116.403 C 36.0895 116.601 36.5998 116.7 37.2144 116.7 C 38.4123 116.7 39.2196 116.367 39.6363 115.7 z M 39.6363 112.7 C 39.6363 112.117 39.402 111.637 38.9332 111.262 C 38.454 110.887 37.8654 110.7 37.1675 110.7 C 36.48 110.7 35.9071 110.871 35.4488 111.215 C 34.9905 111.569 34.7196 112.065 34.6363 112.7 C 34.6363 112.7 39.6363 112.7 39.6363 112.7 z M 48.8863 114.7 L 50.8863 114.7 C 50.6363 116.065 50.1571 117.069 49.4488 117.715 C 48.7405 118.361 47.8863 118.684 46.8863 118.684 C 45.5217 118.684 44.4749 118.204 43.7457 117.246 C 43.0061 116.277 42.6363 115.096 42.6363 113.7 C 42.6363 112.252 43.0373 111.054 43.8394 110.106 C 44.6415 109.169 45.7092 108.7 47.0425 108.7 C 49.1987 108.7 50.48 110.033 50.8863 112.7 L 48.8863 112.7 C 48.7092 111.367 48.0634 110.7 46.9488 110.7 C 46.1363 110.7 45.5478 111.002 45.1832 111.606 C 44.8186 112.221 44.6363 112.96 44.6363 113.825 C 44.6363 114.742 44.829 115.45 45.2144 115.95 C 45.5894 116.45 46.1207 116.7 46.8082 116.7 C 47.8499 116.7 48.5425 116.033 48.8863 114.7 z M 60.6363 118.684 L 58.6363 118.684 L 58.6363 112.512 C 58.6363 111.845 58.48 111.377 58.1675 111.106 C 57.8446 110.835 57.4696 110.7 57.0425 110.7 C 56.3654 110.7 55.7977 110.939 55.3394 111.418 C 54.8707 111.897 54.6363 112.689 54.6363 113.793 L 54.6363 118.684 L 52.6363 118.684 L 52.6363 104.7 L 54.6363 104.7 L 54.6363 110.825 C 55.1988 109.408 56.178 108.7 57.5738 108.7 C 59.6155 108.7 60.6363 109.83 60.6363 112.09 C 60.6363 112.09 60.6363 118.684 60.6363 118.684 z M 67.6363 114.7 L 69.6363 114.7 C 69.8759 116.033 70.7874 116.7 72.3707 116.7 C 73.0999 116.7 73.6624 116.506 74.0582 116.121 C 74.4436 115.746 74.6363 115.273 74.6363 114.7 C 74.6363 114.294 74.553 113.913 74.3863 113.559 C 74.2196 113.215 73.8655 112.944 73.3238 112.746 L 71.2769 112.121 C 70.579 111.902 70.0633 111.652 69.73 111.371 C 69.3967 111.09 69.1311 110.689 68.9332 110.168 C 68.7353 109.658 68.6363 109.111 68.6363 108.528 C 68.6363 107.372 69.0113 106.444 69.7613 105.746 C 70.5009 105.048 71.4488 104.7 72.605 104.7 C 73.5738 104.7 74.4384 104.96 75.1988 105.481 C 75.9488 106.002 76.428 106.742 76.6363 107.7 L 74.6363 107.7 C 74.3446 107.033 73.6571 106.7 72.5738 106.7 C 71.9384 106.7 71.4592 106.861 71.1363 107.184 C 70.803 107.517 70.6363 107.934 70.6363 108.434 C 70.6363 109.236 71.1258 109.798 72.105 110.121 L 73.9019 110.746 C 74.9852 111.09 75.7144 111.595 76.0894 112.262 C 76.454 112.939 76.6363 113.684 76.6363 114.496 C 76.6363 115.798 76.2248 116.825 75.4019 117.575 C 74.579 118.315 73.5113 118.684 72.1988 118.684 C 71.0946 118.684 70.1258 118.366 69.2925 117.731 C 68.4592 117.085 67.9071 116.075 67.6363 114.7 z M 83.5425 118.684 C 81.9488 118.684 80.7352 118.178 79.9019 117.168 C 79.0582 116.147 78.6363 114.98 78.6363 113.668 C 78.6363 112.241 79.0998 111.054 80.0269 110.106 C 80.954 109.169 82.178 108.7 83.6988 108.7 C 85.1363 108.7 86.3186 109.158 87.2457 110.075 C 88.1728 110.992 88.6363 112.189 88.6363 113.668 C 88.6363 115.178 88.1571 116.392 87.1988 117.309 C 86.23 118.226 85.0113 118.684 83.5425 118.684 z M 83.605 116.7 C 85.6258 116.7 86.6363 115.684 86.6363 113.653 C 86.6363 112.747 86.3967 112.027 85.9175 111.496 C 85.4279 110.965 84.6832 110.7 83.6832 110.7 C 82.6519 110.7 81.8863 110.97 81.3863 111.512 C 80.8863 112.064 80.6363 112.794 80.6363 113.7 C 80.6363 114.669 80.9019 115.408 81.4332 115.918 C 81.9644 116.439 82.6883 116.7 83.605 116.7 z M 95.8863 114.7 L 97.8863 114.7 C 97.6363 116.065 97.1571 117.069 96.4488 117.715 C 95.7405 118.361 94.8863 118.684 93.8863 118.684 C 92.5217 118.684 91.4749 118.204 90.7457 117.246 C 90.0061 116.277 89.6363 115.096 89.6363 113.7 C 89.6363 112.252 90.0373 111.054 90.8394 110.106 C 91.6415 109.169 92.7092 108.7 94.0425 108.7 C 96.1988 108.7 97.48 110.033 97.8863 112.7 L 95.8863 112.7 C 95.7092 111.367 95.0634 110.7 93.9488 110.7 C 93.1363 110.7 92.5478 111.002 92.1832 111.606 C 91.8186 112.221 91.6363 112.96 91.6363 113.825 C 91.6363 114.742 91.829 115.45 92.2144 115.95 C 92.5894 116.45 93.1207 116.7 93.8082 116.7 C 94.8499 116.7 95.5425 116.033 95.8863 114.7 z M 101.636 106.871 L 99.6363 106.871 L 99.6363 104.7 L 101.636 104.7 C 101.636 104.7 101.636 106.871 101.636 106.871 z M 101.636 118.684 L 99.6363 118.684 L 99.6363 108.7 L 101.636 108.7 C 101.636 108.7 101.636 118.684 101.636 118.684 z M 110.636 115.7 L 112.636 115.7 C 112.365 116.575 111.835 117.294 111.043 117.856 C 110.241 118.408 109.241 118.684 108.043 118.684 C 106.605 118.684 105.449 118.241 104.574 117.356 C 103.709 116.46 103.277 115.252 103.277 113.731 C 103.277 112.283 103.725 111.079 104.621 110.121 C 105.517 109.173 106.735 108.7 108.277 108.7 C 109.787 108.7 110.954 109.23 111.777 110.293 C 112.6 111.366 113.011 112.741 113.011 114.418 L 112.996 114.7 L 105.636 114.7 C 105.636 115.127 105.709 115.471 105.855 115.731 C 105.99 115.991 106.266 116.215 106.683 116.403 C 107.089 116.601 107.599 116.7 108.214 116.7 C 109.412 116.7 110.219 116.367 110.636 115.7 z M 110.636 112.7 C 110.636 112.117 110.402 111.637 109.933 111.262 C 109.454 110.887 108.866 110.7 108.168 110.7 C 107.48 110.7 106.907 110.871 106.449 111.215 C 105.991 111.569 105.719 112.065 105.636 112.7 C 105.636 112.7 110.636 112.7 110.636 112.7 z M 118.636 116.684 L 118.636 118.684 C 118.021 118.684 117.547 118.684 117.214 118.684 C 116.662 118.684 116.189 118.575 115.793 118.356 C 115.387 118.127 115.095 117.814 114.918 117.418 C 114.73 117.022 114.636 116.413 114.636 115.59 L 114.636 110.7 L 113.636 110.7 L 113.636 108.7 L 114.761 108.7 L 114.98 105.7 L 116.636 105.7 L 116.636 108.7 L 118.636 108.7 L 118.636 110.7 L 116.636 110.7 L 116.636 115.2 C 116.636 115.783 116.741 116.179 116.949 116.387 C 117.157 116.595 117.548 116.7 118.121 116.7 C 118.288 116.7 118.459 116.694 118.636 116.684 z M 127.886 108.7 L 124.605 119.996 C 124.553 120.163 124.309 120.486 123.871 120.965 C 123.434 121.444 122.813 121.684 122.011 121.684 C 121.699 121.684 121.24 121.658 120.636 121.606 L 120.636 119.653 L 121.464 119.684 C 121.829 119.684 122.1 119.746 122.277 119.871 C 122.454 119.996 122.611 119.851 122.746 119.434 C 122.881 119.007 122.949 118.757 122.949 118.684 C 122.949 118.653 122.881 118.455 122.746 118.09 L 119.402 108.7 L 121.48 108.7 L 123.886 115.731 L 125.855 108.7 C 125.855 108.7 127.886 108.7 127.886 108.7 z M 141.636 118.684 L 139.636 118.684 L 139.636 110.7 L 138.636 110.7 L 138.636 108.7 L 139.636 108.7 L 139.636 108.168 C 139.636 107.116 139.855 106.267 140.293 105.621 C 140.72 104.986 141.589 104.668 142.902 104.668 C 143.1 104.668 143.344 104.679 143.636 104.7 L 143.636 106.7 C 143.386 106.679 143.209 106.668 143.105 106.668 C 142.615 106.668 142.272 106.741 142.074 106.887 C 141.866 107.043 141.741 107.226 141.699 107.434 C 141.657 107.642 141.636 108.065 141.636 108.7 L 143.636 108.7 L 143.636 110.7 L 141.636 110.7 C 141.636 110.7 141.636 118.684 141.636 118.684 z M 149.543 118.684 C 147.949 118.684 146.735 118.178 145.902 117.168 C 145.058 116.147 144.636 114.98 144.636 113.668 C 144.636 112.241 145.1 111.054 146.027 110.106 C 146.954 109.169 148.178 108.7 149.699 108.7 C 151.137 108.7 152.319 109.158 153.246 110.075 C 154.173 110.992 154.636 112.189 154.636 113.668 C 154.636 115.178 154.157 116.392 153.199 117.309 C 152.23 118.226 151.012 118.684 149.543 118.684 z M 149.605 116.7 C 151.626 116.7 152.636 115.684 152.636 113.653 C 152.636 112.747 152.397 112.027 151.918 111.496 C 151.428 110.965 150.683 110.7 149.683 110.7 C 148.652 110.7 147.886 110.97 147.386 111.512 C 146.886 112.064 146.636 112.794 146.636 113.7 C 146.636 114.669 146.902 115.408 147.433 115.918 C 147.964 116.439 148.688 116.7 149.605 116.7 z M 158.636 118.684 L 156.636 118.684 L 156.636 108.7 L 158.418 108.7 L 158.418 111.325 C 158.72 110.408 159.141 109.736 159.683 109.309 C 160.214 108.892 160.762 108.684 161.324 108.684 C 161.397 108.684 161.501 108.69 161.636 108.7 L 161.636 110.7 C 160.428 110.7 159.626 111.069 159.23 111.809 C 158.834 112.559 158.636 113.283 158.636 113.981 C 158.636 113.981 158.636 118.684 158.636 118.684 z M 170.636 118.684 L 168.636 118.684 L 168.636 104.7 L 170.636 104.7 C 170.636 104.7 170.636 118.684 170.636 118.684 z M 177.636 118.684 L 175.636 118.684 L 175.636 106.7 L 172.636 106.7 L 172.636 104.7 L 180.636 104.7 L 180.636 106.7 L 177.636 106.7 C 177.636 106.7 177.636 118.684 177.636 118.684 z M 189.636 106.871 L 187.636 106.871 L 187.636 104.7 L 189.636 104.7 C 189.636 104.7 189.636 106.871 189.636 106.871 z M 189.636 118.684 L 187.636 118.684 L 187.636 108.7 L 189.636 108.7 C 189.636 108.7 189.636 118.684 189.636 118.684 z M 200.636 118.684 L 198.636 118.684 L 198.636 112.637 C 198.636 111.991 198.475 111.507 198.152 111.184 C 197.829 110.861 197.438 110.7 196.98 110.7 C 196.355 110.7 195.808 110.95 195.339 111.45 C 194.87 111.95 194.636 112.705 194.636 113.715 L 194.636 118.684 L 192.636 118.684 L 192.636 108.7 L 194.449 108.7 L 194.449 110.981 C 195.168 109.46 196.172 108.7 197.464 108.7 C 198.339 108.7 199.089 108.97 199.714 109.512 C 200.329 110.054 200.636 111.006 200.636 112.371 C 200.636 112.371 200.636 118.684 200.636 118.684 z M 218.761 118.684 L 216.824 118.684 L 215.871 115.7 L 210.355 115.7 L 209.402 118.684 L 207.402 118.684 L 211.855 104.7 L 214.48 104.7 C 214.48 104.7 218.761 118.684 218.761 118.684 z M 215.246 113.7 L 213.136 106.981 L 210.996 113.7 C 210.996 113.7 215.246 113.7 215.246 113.7 z M 228.621 106.7 L 228.621 108.7 L 228.011 108.7 C 227.74 108.7 227.506 108.736 227.308 108.809 C 227.1 108.882 226.902 109.122 226.714 109.528 C 227.329 110.163 227.636 110.876 227.636 111.668 C 227.636 112.543 227.334 113.267 226.73 113.84 C 226.126 114.413 225.324 114.7 224.324 114.7 C 223.897 114.7 223.397 114.617 222.824 114.45 C 222.699 114.585 222.636 114.794 222.636 115.075 C 222.636 115.231 222.725 115.371 222.902 115.496 C 223.079 115.631 223.349 115.7 223.714 115.7 L 226.058 115.7 C 226.86 115.7 227.491 115.96 227.949 116.481 C 228.407 117.002 228.636 117.653 228.636 118.434 C 228.636 119.361 228.245 120.137 227.464 120.762 C 226.672 121.377 225.511 121.684 223.98 121.684 C 221.084 121.684 219.636 120.762 219.636 118.918 C 219.636 118.012 220.142 117.325 221.152 116.856 C 220.808 116.45 220.636 116.023 220.636 115.575 C 220.636 114.898 221.027 114.361 221.808 113.965 C 221.027 113.413 220.636 112.647 220.636 111.668 C 220.636 110.845 220.917 110.142 221.48 109.559 C 222.042 108.986 222.897 108.7 224.043 108.7 C 224.564 108.7 225.094 108.768 225.636 108.903 C 225.917 107.434 226.657 106.7 227.855 106.7 C 227.855 106.7 228.621 106.7 228.621 106.7 z M 224.136 112.7 C 225.136 112.7 225.636 112.351 225.636 111.653 C 225.636 111.382 225.511 111.152 225.261 110.965 C 225.011 110.788 224.647 110.7 224.168 110.7 C 223.678 110.7 223.303 110.794 223.043 110.981 C 222.772 111.179 222.636 111.419 222.636 111.7 C 222.636 112.002 222.772 112.241 223.043 112.418 C 223.303 112.605 223.667 112.7 224.136 112.7 z M 222.105 117.465 C 221.792 117.767 221.636 118.059 221.636 118.34 C 221.636 118.788 221.866 119.189 222.324 119.543 C 222.772 119.887 223.485 120.059 224.464 120.059 C 225.912 120.059 226.636 119.606 226.636 118.7 C 226.636 118.377 226.511 118.127 226.261 117.95 C 226.011 117.783 225.725 117.7 225.402 117.7 L 223.433 117.7 C 223.058 117.7 222.615 117.621 222.105 117.465 z M 232.636 118.684 L 230.636 118.684 L 230.636 108.7 L 232.418 108.7 L 232.418 111.325 C 232.72 110.408 233.141 109.736 233.683 109.309 C 234.214 108.892 234.762 108.684 235.324 108.684 C 235.397 108.684 235.501 108.69 235.636 108.7 L 235.636 110.7 C 234.428 110.7 233.626 111.069 233.23 111.809 C 232.834 112.559 232.636 113.283 232.636 113.981 C 232.636 113.981 232.636 118.684 232.636 118.684 z M 239.636 106.871 L 237.636 106.871 L 237.636 104.7 L 239.636 104.7 C 239.636 104.7 239.636 106.871 239.636 106.871 z M 239.636 118.684 L 237.636 118.684 L 237.636 108.7 L 239.636 108.7 C 239.636 108.7 239.636 118.684 239.636 118.684 z M 247.886 114.7 L 249.886 114.7 C 249.636 116.065 249.157 117.069 248.449 117.715 C 247.741 118.361 246.886 118.684 245.886 118.684 C 244.521 118.684 243.475 118.204 242.746 117.246 C 242.006 116.277 241.636 115.096 241.636 113.7 C 241.636 112.252 242.037 111.054 242.839 110.106 C 243.641 109.169 244.71 108.7 246.043 108.7 C 248.199 108.7 249.48 110.033 249.886 112.7 L 247.886 112.7 C 247.709 111.367 247.064 110.7 245.949 110.7 C 245.137 110.7 244.548 111.002 244.183 111.606 C 243.818 112.221 243.636 112.96 243.636 113.825 C 243.636 114.742 243.829 115.45 244.214 115.95 C 244.589 116.45 245.12 116.7 245.808 116.7 C 246.85 116.7 247.542 116.033 247.886 114.7 z M 259.636 118.684 L 257.793 118.684 L 257.793 116.371 C 257.22 117.913 256.163 118.684 254.621 118.684 C 253.704 118.684 252.98 118.413 252.449 117.871 C 251.907 117.319 251.636 116.549 251.636 115.559 L 251.636 108.7 L 253.636 108.7 L 253.636 114.996 C 253.636 115.694 253.808 116.152 254.152 116.371 C 254.496 116.59 254.835 116.7 255.168 116.7 C 255.699 116.7 256.246 116.48 256.808 116.043 C 257.36 115.616 257.636 114.695 257.636 113.278 L 257.636 108.7 L 259.636 108.7 C 259.636 108.7 259.636 118.684 259.636 118.684 z M 264.636 118.684 L 262.636 118.684 L 262.636 104.7 L 264.636 104.7 C 264.636 104.7 264.636 118.684 264.636 118.684 z M 271.636 116.684 L 271.636 118.684 C 271.021 118.684 270.547 118.684 270.214 118.684 C 269.662 118.684 269.189 118.575 268.793 118.356 C 268.387 118.127 268.095 117.814 267.918 117.418 C 267.73 117.022 267.636 116.413 267.636 115.59 L 267.636 110.7 L 266.636 110.7 L 266.636 108.7 L 267.761 108.7 L 267.98 105.7 L 269.636 105.7 L 269.636 108.7 L 271.636 108.7 L 271.636 110.7 L 269.636 110.7 L 269.636 115.2 C 269.636 115.783 269.741 116.179 269.949 116.387 C 270.157 116.595 270.548 116.7 271.121 116.7 C 271.288 116.7 271.459 116.694 271.636 116.684 z M 281.636 118.684 L 279.793 118.684 L 279.793 116.371 C 279.22 117.913 278.163 118.684 276.621 118.684 C 275.704 118.684 274.98 118.413 274.449 117.871 C 273.907 117.319 273.636 116.549 273.636 115.559 L 273.636 108.7 L 275.636 108.7 L 275.636 114.996 C 275.636 115.694 275.808 116.152 276.152 116.371 C 276.496 116.59 276.835 116.7 277.168 116.7 C 277.699 116.7 278.246 116.48 278.808 116.043 C 279.36 115.616 279.636 114.695 279.636 113.278 L 279.636 108.7 L 281.636 108.7 C 281.636 108.7 281.636 118.684 281.636 118.684 z M 286.636 118.684 L 284.636 118.684 L 284.636 108.7 L 286.418 108.7 L 286.418 111.325 C 286.72 110.408 287.141 109.736 287.683 109.309 C 288.214 108.892 288.762 108.684 289.324 108.684 C 289.397 108.684 289.501 108.69 289.636 108.7 L 289.636 110.7 C 288.428 110.7 287.626 111.069 287.23 111.809 C 286.834 112.559 286.636 113.283 286.636 113.981 C 286.636 113.981 286.636 118.684 286.636 118.684 z M 297.636 115.7 L 299.636 115.7 C 299.365 116.575 298.835 117.294 298.043 117.856 C 297.241 118.408 296.241 118.684 295.043 118.684 C 293.605 118.684 292.449 118.241 291.574 117.356 C 290.709 116.46 290.277 115.252 290.277 113.731 C 290.277 112.283 290.725 111.079 291.621 110.121 C 292.517 109.173 293.735 108.7 295.277 108.7 C 296.787 108.7 297.954 109.23 298.777 110.293 C 299.6 111.366 300.011 112.741 300.011 114.418 L 299.996 114.7 L 292.636 114.7 C 292.636 115.127 292.709 115.471 292.855 115.731 C 292.99 115.991 293.266 116.215 293.683 116.403 C 294.089 116.601 294.599 116.7 295.214 116.7 C 296.412 116.7 297.219 116.367 297.636 115.7 z M 297.636 112.7 C 297.636 112.117 297.402 111.637 296.933 111.262 C 296.454 110.887 295.866 110.7 295.168 110.7 C 294.48 110.7 293.907 110.871 293.449 111.215 C 292.991 111.569 292.719 112.065 292.636 112.7 C 292.636 112.7 297.636 112.7 297.636 112.7 z" />
<polyline fill="none" stroke-width="5" stroke="#77933c" stroke-linecap="round" stroke-linejoin="round" points="6.02511,88.6601 175.922,89.1385 200.808,72.3939 208.944,88.1817 235.266,38.4263 250.581,97.75 285.517,80.0486 314.232,80.0486" />
</g>
</svg>
