<?xml version="1.0" encoding="utf-8"?>
<!-- Generator: Adobe Illustrator 16.0.0, SVG Export Plug-In . SVG Version: 6.00 Build 0)  -->
<!DOCTYPE svg PUBLIC "-//W3C//DTD SVG 1.1//EN" "http://www.w3.org/Graphics/SVG/1.1/DTD/svg11.dtd">
<svg version="1.1" id="Vrstva_1" xmlns="http://www.w3.org/2000/svg" xmlns:xlink="http://www.w3.org/1999/xlink" x="0px" y="0px"
	 width="396.667px" height="309.333px" viewBox="0 0 396.667 309.333" enable-background="new 0 0 396.667 309.333"
	 xml:space="preserve">
<rect x="98.574" y="52.357" fill="none" stroke="#020202" stroke-width="10" stroke-linecap="round" stroke-linejoin="round" stroke-miterlimit="10" width="121.084" height="93.374"/>
<line fill="none" stroke="#020202" stroke-width="9.2466" stroke-linecap="round" stroke-linejoin="round" stroke-miterlimit="10" x1="267.495" y1="103.851" x2="350.42" y2="103.851"/>
<line fill="none" stroke="#020202" stroke-width="9.2466" stroke-linecap="round" stroke-linejoin="round" stroke-miterlimit="10" x1="267.495" y1="155.345" x2="350.42" y2="155.345"/>
<line fill="none" stroke="#020202" stroke-width="9.7468" stroke-linecap="round" stroke-linejoin="round" stroke-miterlimit="10" x1="98.324" y1="206.839" x2="349.56" y2="206.839"/>
<line fill="none" stroke="#020202" stroke-width="9.7468" stroke-linecap="round" stroke-linejoin="round" stroke-miterlimit="10" x1="98.324" y1="258.333" x2="349.56" y2="258.333"/>
<polyline fill="none" stroke="#020202" stroke-width="10" stroke-linecap="round" stroke-linejoin="round" stroke-miterlimit="10" points="
	5.188,281.935 5.188,64.767 52.208,64.767 52.779,281.935 "/>
<path fill="none" stroke="#020202" stroke-width="10" stroke-linecap="round" stroke-linejoin="round" stroke-miterlimit="10" d="
	M52.779,281.935c0,12.81-10.653,23.193-23.795,23.193c-13.142,0-23.795-10.384-23.795-23.193"/>
<line fill="none" stroke="#020202" stroke-width="9.7468" stroke-linecap="round" stroke-linejoin="round" stroke-miterlimit="10" x1="369.291" y1="305.128" x2="52.529" y2="305.128"/>
<polyline fill="none" stroke="#020202" stroke-width="9.7468" stroke-linecap="round" stroke-linejoin="round" stroke-miterlimit="10" points="
	53.333,268.833 52.529,5.731 391.896,5.731 391.896,281.935 "/>
<line fill="none" stroke="#020202" stroke-width="9.2466" stroke-linecap="round" stroke-linejoin="round" stroke-miterlimit="10" x1="267.495" y1="52.357" x2="350.42" y2="52.357"/>
<line fill="none" stroke="#020202" stroke-width="10" stroke-linecap="round" stroke-linejoin="round" stroke-miterlimit="10" x1="72.333" y1="305.128" x2="28.983" y2="305.128"/>
<path fill="none" stroke="#020202" stroke-width="10" stroke-linecap="round" stroke-linejoin="round" stroke-miterlimit="10" d="
	M391.646,281.935c0,12.81-10.652,23.193-23.795,23.193"/>
<g>
</g>
<g>
</g>
<g>
</g>
<g>
</g>
<g>
</g>
<g>
</g>
</svg>
