<?xml version="1.0" encoding="utf-8"?>
<!-- Generator: Adobe Illustrator 16.0.0, SVG Export Plug-In . SVG Version: 6.00 Build 0)  -->
<!DOCTYPE svg PUBLIC "-//W3C//DTD SVG 1.1//EN" "http://www.w3.org/Graphics/SVG/1.1/DTD/svg11.dtd">
<svg version="1.1" id="Vrstva_1" xmlns="http://www.w3.org/2000/svg" xmlns:xlink="http://www.w3.org/1999/xlink" x="0px" y="0px"
	 width="97.941px" height="112.496px" viewBox="0 0 97.941 112.496" enable-background="new 0 0 97.941 112.496"
	 xml:space="preserve">
<polyline fill="none" stroke="#000000" stroke-width="5" stroke-miterlimit="10" points="32.733,94.588 21.982,94.588 21.982,2.588 
	72.483,2.588 95.482,25.421 95.482,94.588 84.898,94.588 "/>
<line fill="none" stroke="#000000" stroke-width="5" stroke-miterlimit="10" x1="95.482" y1="25.421" x2="72.482" y2="2.588"/>
<polyline fill="none" stroke="#000000" stroke-width="5" stroke-miterlimit="10" points="72.482,2.588 72.482,25.421 95.482,25.421 
	"/>
<rect x="46.333" y="53.926" width="24.8" height="40.16"/>
<polygon points="82.322,88.907 58.733,112.496 35.144,88.907 58.733,88.906 "/>
<rect y="16.526" width="63.887" height="27.984"/>
<g>
	<path fill="#FFFFFF" d="M7.253,21.638c1.269-0.216,3.05-0.378,5.561-0.378c2.537,0,4.346,0.485,5.561,1.457
		c1.161,0.918,1.943,2.43,1.943,4.211c0,1.782-0.594,3.293-1.674,4.319c-1.403,1.322-3.481,1.916-5.911,1.916
		c-0.54,0-1.025-0.026-1.403-0.081v6.506H7.253V21.638z M11.33,29.897c0.351,0.081,0.782,0.107,1.376,0.107
		c2.187,0,3.536-1.106,3.536-2.969c0-1.674-1.16-2.673-3.212-2.673c-0.837,0-1.403,0.081-1.7,0.162V29.897z"/>
	<path fill="#FFFFFF" d="M24.831,21.638c1.511-0.243,3.481-0.378,5.56-0.378c3.455,0,5.696,0.62,7.45,1.943
		c1.89,1.403,3.077,3.644,3.077,6.856c0,3.481-1.269,5.884-3.022,7.368c-1.917,1.593-4.832,2.349-8.396,2.349
		c-2.132,0-3.644-0.135-4.669-0.27V21.638z M28.96,36.483c0.351,0.081,0.917,0.081,1.43,0.081c3.726,0.027,6.155-2.024,6.155-6.37
		c0.026-3.779-2.187-5.776-5.723-5.776c-0.918,0-1.512,0.081-1.862,0.162V36.483z"/>
	<path fill="#FFFFFF" d="M45.512,21.395h11.121v3.374h-6.991v4.157h6.532v3.347h-6.532v7.315h-4.13V21.395z"/>
</g>
<g>
</g>
<g>
</g>
<g>
</g>
<g>
</g>
<g>
</g>
<g>
</g>
</svg>
