<?xml version="1.0" encoding="utf-8"?>
<!-- Generator: Adobe Illustrator 16.0.0, SVG Export Plug-In . SVG Version: 6.00 Build 0)  -->
<!DOCTYPE svg PUBLIC "-//W3C//DTD SVG 1.1//EN" "http://www.w3.org/Graphics/SVG/1.1/DTD/svg11.dtd">
<svg version="1.1" id="Vrstva_1" xmlns="http://www.w3.org/2000/svg" xmlns:xlink="http://www.w3.org/1999/xlink" x="0px" y="0px"
	 width="601.808px" height="102.574px" viewBox="0 0 601.808 102.574" enable-background="new 0 0 601.808 102.574"
	 xml:space="preserve">
<polygon fill="#B52B33" points="134.248,2.551 153.949,2.551 153.949,6.512 139.023,6.512 139.023,18.668 152.809,18.668 
	152.809,22.578 139.023,22.578 139.023,39.131 134.248,39.131 "/>
<g>
	<path fill="#B52B33" d="M171.967,25.725c-5.209-0.107-11.127,0.814-11.127,5.916c0,3.148,2.064,4.559,4.453,4.559
		c3.473,0,5.699-2.17,6.457-4.396c0.164-0.543,0.217-1.084,0.217-1.52V25.725z M176.582,32.834c0,2.281,0.105,4.504,0.379,6.297
		h-4.289l-0.379-3.311h-0.162c-1.467,2.063-4.287,3.906-8.033,3.906c-5.32,0-8.031-3.744-8.031-7.543
		c0-6.352,5.645-9.822,15.793-9.77v-0.543c0-2.117-0.598-6.078-5.971-6.023c-2.496,0-5.049,0.705-6.893,1.953L157.91,14.6
		c2.172-1.357,5.375-2.281,8.684-2.281c8.033,0,9.988,5.482,9.988,10.691V32.834z"/>
	<path fill="#B52B33" d="M203.012,38.207c-1.248,0.598-4.016,1.521-7.543,1.521c-7.926,0-13.082-5.375-13.082-13.406
		c0-8.086,5.537-14.002,14.109-14.002c2.824,0,5.32,0.703,6.623,1.41l-1.086,3.637c-1.139-0.598-2.93-1.25-5.537-1.25
		c-6.023,0-9.277,4.506-9.277,9.934c0,6.08,3.906,9.822,9.117,9.822c2.715,0,4.506-0.65,5.861-1.248L203.012,38.207z"/>
	<path fill="#B52B33" d="M230.582,31.912c0,2.768,0.055,5.156,0.219,7.217h-4.234l-0.271-4.287h-0.107
		c-1.195,2.117-4.016,4.887-8.684,4.887c-4.125,0-9.066-2.334-9.066-11.506V12.861h4.777v14.492c0,4.992,1.574,8.412,5.861,8.412
		c3.201,0,5.428-2.227,6.297-4.396c0.271-0.652,0.434-1.52,0.434-2.441V12.861h4.775V31.912z"/>
</g>
<rect x="238.506" y="0.598" fill="#B52B33" width="4.779" height="38.533"/>
<g>
	<path fill="#B52B33" d="M257.066,6.566v6.295h6.838v3.637h-6.838v14.166c0,3.256,0.926,5.102,3.582,5.102
		c1.303,0,2.063-0.109,2.77-0.326l0.217,3.637c-0.924,0.326-2.389,0.652-4.234,0.652c-2.225,0-4.016-0.76-5.154-2.01
		c-1.305-1.465-1.848-3.799-1.848-6.893V16.498h-4.07v-3.637h4.07V7.979L257.066,6.566z"/>
	<path fill="#B52B33" d="M271.504,12.861l5.695,15.523c0.652,1.736,1.305,3.799,1.738,5.373h0.109
		c0.488-1.574,1.029-3.584,1.682-5.482l5.213-15.414h5.045l-7.164,18.725c-3.42,9.01-5.752,13.568-9.01,16.445
		c-2.387,2.008-4.668,2.82-5.859,3.039l-1.195-3.961c1.195-0.381,2.77-1.139,4.18-2.334c1.301-1.031,2.875-2.877,4.016-5.32
		c0.219-0.486,0.379-0.867,0.379-1.139c0-0.273-0.107-0.65-0.379-1.248l-9.66-24.207H271.504z"/>
	<path fill="#B52B33" d="M309.816,26.051c0,5.752,3.26,10.094,7.928,10.094c4.557,0,7.975-4.287,7.975-10.201
		c0-4.453-2.225-10.043-7.867-10.043C312.262,15.9,309.816,21.111,309.816,26.051 M330.605,25.779
		c0,9.713-6.785,13.947-13.08,13.947c-7.057,0-12.592-5.209-12.592-13.514c0-8.738,5.807-13.895,13.027-13.895
		C325.504,12.318,330.605,17.801,330.605,25.779"/>
	<path fill="#B52B33" d="M337.117,39.131V16.498h-3.635v-3.637h3.635v-1.246c0-3.691,0.867-7.057,3.041-9.174
		C341.945,0.705,344.336,0,346.563,0c1.734,0,3.145,0.381,4.066,0.758l-0.648,3.693c-0.703-0.326-1.631-0.6-3.039-0.6
		c-4.07,0-5.104,3.529-5.104,7.6v1.41h6.354v3.637h-6.354v22.633H337.117z"/>
</g>
<polygon fill="#B52B33" points="383.031,21.98 368.863,21.98 368.863,35.168 384.715,35.168 384.715,39.131 364.088,39.131 
	364.088,2.551 383.898,2.551 383.898,6.512 368.863,6.512 368.863,18.072 383.031,18.072 "/>
<g>
	<path fill="#B52B33" d="M409.19,38.207c-1.248,0.598-4.016,1.521-7.545,1.521c-7.923,0-13.079-5.375-13.079-13.406
		c0-8.086,5.537-14.002,14.112-14.002c2.822,0,5.32,0.703,6.619,1.41l-1.082,3.637c-1.141-0.598-2.932-1.25-5.537-1.25
		c-6.026,0-9.28,4.506-9.28,9.934c0,6.08,3.906,9.822,9.118,9.822c2.715,0,4.504-0.65,5.859-1.248L409.19,38.207z"/>
	<path fill="#B52B33" d="M417.442,26.051c0,5.752,3.258,10.094,7.926,10.094c4.559,0,7.977-4.287,7.977-10.201
		c0-4.453-2.227-10.043-7.869-10.043C419.886,15.9,417.442,21.111,417.442,26.051 M438.229,25.779
		c0,9.713-6.785,13.947-13.08,13.947c-7.055,0-12.592-5.209-12.592-13.514c0-8.738,5.807-13.895,13.025-13.895
		C433.128,12.318,438.229,17.801,438.229,25.779"/>
	<path fill="#B52B33" d="M444.255,19.973c0-2.77-0.057-4.939-0.219-7.111h4.234l0.27,4.342h0.109
		c1.303-2.441,4.34-4.883,8.684-4.883c3.637,0,9.281,2.17,9.281,11.18v15.629h-4.777V23.988c0-4.234-1.574-7.76-6.076-7.76
		c-3.096,0-5.537,2.223-6.406,4.883c-0.217,0.596-0.326,1.412-0.326,2.225v15.793h-4.773V19.973z"/>
	<path fill="#B52B33" d="M477.358,26.051c0,5.752,3.26,10.094,7.928,10.094c4.557,0,7.977-4.287,7.977-10.201
		c0-4.453-2.227-10.043-7.871-10.043C479.802,15.9,477.358,21.111,477.358,26.051 M498.146,25.779
		c0,9.713-6.785,13.947-13.078,13.947c-7.057,0-12.594-5.209-12.594-13.514c0-8.738,5.807-13.895,13.027-13.895
		C493.044,12.318,498.146,17.801,498.146,25.779"/>
	<path fill="#B52B33" d="M504.171,19.973c0-2.77-0.107-4.939-0.217-7.111h4.178l0.217,4.289h0.164
		c1.467-2.496,3.906-4.83,8.305-4.83c3.527,0,6.238,2.17,7.379,5.264h0.107c0.814-1.52,1.9-2.604,2.986-3.42
		c1.574-1.193,3.254-1.844,5.754-1.844c3.527,0,8.682,2.277,8.682,11.398v15.41h-4.668V24.314c0-5.104-1.896-8.086-5.697-8.086
		c-2.766,0-4.828,2.008-5.699,4.285c-0.219,0.707-0.379,1.52-0.379,2.389v16.227h-4.668V23.393c0-4.182-1.844-7.164-5.48-7.164
		c-2.934,0-5.154,2.385-5.916,4.775c-0.271,0.65-0.377,1.52-0.377,2.332v15.793h-4.67V19.973z"/>
	<path fill="#B52B33" d="M549.435,12.861h4.773v26.268h-4.773V12.861z M554.753,5.48c0,1.629-1.139,2.93-3.041,2.93
		c-1.734,0-2.875-1.301-2.875-2.93c0-1.627,1.191-2.986,2.984-2.986C553.558,2.494,554.753,3.799,554.753,5.48"/>
	<path fill="#B52B33" d="M580.856,38.207c-1.246,0.598-4.016,1.521-7.543,1.521c-7.924,0-13.08-5.375-13.08-13.406
		c0-8.086,5.533-14.002,14.111-14.002c2.824,0,5.316,0.703,6.621,1.41l-1.086,3.637c-1.141-0.598-2.928-1.25-5.535-1.25
		c-6.023,0-9.281,4.506-9.281,9.934c0,6.08,3.91,9.822,9.117,9.822c2.715,0,4.508-0.65,5.863-1.248L580.856,38.207z"/>
	<path fill="#B52B33" d="M585.796,34.299c1.467,0.869,3.963,1.848,6.35,1.848c3.42,0,5.047-1.684,5.047-3.908
		c0-2.281-1.355-3.475-4.828-4.777c-4.777-1.734-7-4.287-7-7.436c0-4.234,3.473-7.705,9.063-7.705c2.656,0,4.992,0.705,6.402,1.627
		l-1.139,3.475c-1.033-0.652-2.93-1.574-5.373-1.574c-2.824,0-4.342,1.629-4.342,3.582c0,2.17,1.518,3.148,4.938,4.504
		c4.506,1.682,6.895,3.963,6.895,7.869c0,4.67-3.637,7.926-9.771,7.926c-2.875,0-5.531-0.762-7.381-1.848L585.796,34.299z"/>
	<path fill="#B52B33" d="M147.977,77.828c-5.209-0.109-11.125,0.814-11.125,5.914c0,3.148,2.064,4.561,4.453,4.561
		c3.471,0,5.697-2.172,6.457-4.398c0.162-0.539,0.215-1.084,0.215-1.518V77.828z M152.592,84.937c0,2.279,0.107,4.506,0.381,6.295
		h-4.289l-0.379-3.311h-0.164c-1.465,2.063-4.287,3.906-8.031,3.906c-5.32,0-8.031-3.744-8.031-7.541
		c0-6.352,5.645-9.824,15.793-9.77v-0.543c0-2.115-0.598-6.08-5.973-6.023c-2.496,0-5.047,0.705-6.891,1.951l-1.086-3.201
		c2.172-1.357,5.375-2.279,8.684-2.279c8.031,0,9.986,5.48,9.986,10.693V84.937z"/>
	<path fill="#B52B33" d="M160.299,72.076c0-2.77-0.053-4.941-0.217-7.111h4.232l0.271,4.342h0.109
		c1.301-2.441,4.342-4.885,8.684-4.885c3.637,0,9.281,2.172,9.281,11.182v15.629h-4.777V76.091c0-4.234-1.574-7.762-6.078-7.762
		c-3.094,0-5.535,2.225-6.404,4.885c-0.217,0.596-0.326,1.41-0.326,2.225v15.793h-4.775V72.076z"/>
	<path fill="#B52B33" d="M208.328,75.656c0-0.598-0.053-1.41-0.215-2.008c-0.707-2.984-3.313-5.482-6.891-5.482
		c-4.941,0-7.873,4.344-7.873,10.096c0,5.318,2.66,9.715,7.762,9.715c3.201,0,6.131-2.17,7.002-5.697
		c0.162-0.652,0.215-1.305,0.215-2.063V75.656z M213.051,52.699v31.75c0,2.334,0.109,4.994,0.219,6.783h-4.234l-0.219-4.557h-0.16
		c-1.414,2.93-4.559,5.152-8.848,5.152c-6.35,0-11.289-5.371-11.289-13.35c-0.055-8.738,5.428-14.055,11.777-14.055
		c4.07,0,6.73,1.898,7.926,3.961h0.105V52.699H213.051z"/>
	<path fill="#B52B33" d="M263.525,75.167c-0.271-5.102-0.6-11.287-0.6-15.791h-0.105c-1.303,4.232-2.77,8.846-4.613,13.893
		l-6.461,17.746h-3.582l-5.969-17.422c-1.736-5.209-3.148-9.877-4.178-14.217h-0.107c-0.111,4.557-0.381,10.635-0.707,16.172
		l-0.977,15.684h-4.504l2.549-36.578h6.025l6.24,17.691c1.521,4.504,2.713,8.521,3.693,12.32h0.105
		c0.977-3.689,2.279-7.707,3.91-12.32l6.512-17.691h6.023l2.281,36.578h-4.668L263.525,75.167z"/>
	<path fill="#B52B33" d="M290.336,77.828c-5.211-0.109-11.127,0.814-11.127,5.914c0,3.148,2.064,4.561,4.451,4.561
		c3.473,0,5.699-2.172,6.459-4.398c0.162-0.539,0.217-1.084,0.217-1.518V77.828z M294.949,84.937c0,2.279,0.107,4.506,0.379,6.295
		h-4.285l-0.383-3.311h-0.16c-1.467,2.063-4.289,3.906-8.035,3.906c-5.318,0-8.031-3.744-8.031-7.541
		c0-6.352,5.645-9.824,15.791-9.77v-0.543c0-2.115-0.596-6.08-5.967-6.023c-2.496,0-5.049,0.705-6.893,1.951l-1.088-3.201
		c2.172-1.357,5.373-2.279,8.684-2.279c8.035,0,9.988,5.48,9.988,10.693V84.937z"/>
	<path fill="#B52B33" d="M302.656,72.076c0-2.77-0.055-4.941-0.219-7.111h4.234l0.27,4.342h0.109
		c1.305-2.441,4.342-4.885,8.684-4.885c3.637,0,9.281,2.172,9.281,11.182v15.629h-4.775V76.091c0-4.234-1.576-7.762-6.078-7.762
		c-3.096,0-5.537,2.225-6.404,4.885c-0.219,0.596-0.328,1.41-0.328,2.225v15.793h-4.773V72.076z"/>
	<path fill="#B52B33" d="M346.617,77.828c-5.211-0.109-11.125,0.814-11.125,5.914c0,3.148,2.061,4.561,4.449,4.561
		c3.473,0,5.697-2.172,6.461-4.398c0.16-0.539,0.215-1.084,0.215-1.518V77.828z M351.23,84.937c0,2.279,0.105,4.506,0.377,6.295
		h-4.283l-0.383-3.311h-0.162c-1.467,2.063-4.287,3.906-8.033,3.906c-5.316,0-8.031-3.744-8.031-7.541
		c0-6.352,5.643-9.824,15.793-9.77v-0.543c0-2.115-0.598-6.08-5.971-6.023c-2.496,0-5.045,0.705-6.893,1.951l-1.086-3.201
		c2.172-1.357,5.373-2.279,8.684-2.279c8.033,0,9.988,5.48,9.988,10.693V84.937z"/>
	<path fill="#B52B33" d="M376.629,75.332c0-0.814-0.055-1.521-0.27-2.117c-0.871-2.822-3.15-5.102-6.68-5.102
		c-4.557,0-7.814,3.854-7.814,9.93c0,5.158,2.662,9.443,7.76,9.443c2.988,0,5.646-1.844,6.625-4.883
		c0.271-0.814,0.379-1.736,0.379-2.551V75.332z M381.406,87.378c0,6.078-1.25,9.717-3.746,12.051
		c-2.605,2.332-6.295,3.145-9.605,3.145c-3.148,0-6.625-0.758-8.738-2.17l1.191-3.689c1.738,1.139,4.451,2.117,7.709,2.117
		c4.885,0,8.463-2.551,8.463-9.227v-2.877h-0.105c-1.41,2.443-4.287,4.396-8.357,4.396c-6.514,0-11.18-5.535-11.18-12.811
		c0-8.898,5.807-13.893,11.885-13.893c4.557,0,7,2.334,8.195,4.506h0.107l0.164-3.963h4.234c-0.166,1.844-0.217,4.016-0.217,7.164
		V87.378z"/>
	<path fill="#B52B33" d="M405.935,75.548c0.057-2.986-1.246-7.707-6.619-7.707c-4.886,0-6.948,4.395-7.327,7.707H405.935z
		 M391.934,78.968c0.107,6.457,4.18,9.117,9.009,9.117c3.422,0,5.537-0.598,7.273-1.357l0.871,3.42
		c-1.686,0.76-4.617,1.682-8.793,1.682c-8.087,0-12.919-5.373-12.919-13.297s4.666-14.111,12.321-14.111
		c8.627,0,10.855,7.49,10.855,12.322c0,0.977-0.057,1.68-0.166,2.225H391.934z"/>
	<path fill="#B52B33" d="M416.466,72.076c0-2.77-0.107-4.941-0.217-7.111h4.178l0.215,4.289h0.168
		c1.465-2.498,3.906-4.832,8.303-4.832c3.529,0,6.238,2.172,7.379,5.266h0.107c0.814-1.52,1.902-2.605,2.988-3.42
		c1.572-1.193,3.254-1.846,5.752-1.846c3.529,0,8.682,2.279,8.682,11.396v15.414h-4.668V76.417c0-5.104-1.895-8.088-5.699-8.088
		c-2.766,0-4.826,2.008-5.695,4.287c-0.219,0.703-0.381,1.52-0.381,2.389v16.227h-4.666V75.496c0-4.182-1.848-7.166-5.482-7.166
		c-2.932,0-5.154,2.387-5.916,4.777c-0.271,0.65-0.379,1.518-0.379,2.332v15.793h-4.668V72.076z"/>
	<path fill="#B52B33" d="M478.39,75.548c0.057-2.986-1.248-7.707-6.619-7.707c-4.887,0-6.949,4.395-7.328,7.707H478.39z
		 M464.388,78.968c0.107,6.457,4.18,9.117,9.008,9.117c3.424,0,5.539-0.598,7.273-1.357l0.871,3.42
		c-1.684,0.76-4.617,1.682-8.793,1.682c-8.086,0-12.918-5.373-12.918-13.297s4.666-14.111,12.322-14.111
		c8.627,0,10.854,7.49,10.854,12.322c0,0.977-0.055,1.68-0.166,2.225H464.388z"/>
	<path fill="#B52B33" d="M488.919,72.076c0-2.77-0.055-4.941-0.217-7.111h4.234l0.27,4.342h0.107
		c1.305-2.441,4.344-4.885,8.684-4.885c3.637,0,9.283,2.172,9.283,11.182v15.629h-4.775V76.091c0-4.234-1.576-7.762-6.078-7.762
		c-3.098,0-5.539,2.225-6.406,4.885c-0.219,0.596-0.326,1.41-0.326,2.225v15.793h-4.775V72.076z"/>
	<path fill="#B52B33" d="M524.577,58.669v6.295h6.838v3.637h-6.838v14.164c0,3.256,0.922,5.104,3.584,5.104
		c1.301,0,2.063-0.109,2.766-0.326l0.219,3.637c-0.922,0.326-2.387,0.648-4.232,0.648c-2.229,0-4.02-0.76-5.158-2.008
		c-1.301-1.465-1.846-3.799-1.846-6.891V68.601h-4.07v-3.637h4.07v-4.883L524.577,58.669z"/>
	<path fill="#B52B33" d="M85.773,17.598c0,0-5.723-0.449-8.148,1.014c0,0,5.352-0.336,11.369,3.174v-4.246
		C88.383,17.568,86.934,17.633,85.773,17.598"/>
	<path fill="#B52B33" d="M25.871,19.859c0,0,2.109-0.695,3.816-1.053c0,0-1.129-0.553-5.457-0.592c0,0-5.668,0.449-13.287-1.396
		c0,0,2.287,5.148,2.182,9.598c3.371-3.402,7.797-5.764,12.744-6.553L25.871,19.859z"/>
	<path fill="#B52B33" d="M24.23,42.496c0,2.945,2.387,5.328,5.33,5.328s5.33-2.383,5.33-5.328c0-2.943-2.387-5.33-5.33-5.33
		S24.23,39.553,24.23,42.496"/>
	<path fill="#B52B33" d="M19.867,32.688c1.195-1.176,2.605-2.133,4.16-2.814l-2.547-6.254c-2.395,1.025-4.559,2.492-6.383,4.299
		L19.867,32.688z"/>
	<path fill="#B52B33" d="M16.805,37.207c0.639-1.531,1.555-2.916,2.676-4.105l-4.781-4.779c-1.738,1.814-3.152,3.941-4.145,6.291
		L16.805,37.207z"/>
	<path fill="#B52B33" d="M24.555,29.664c1.486-0.578,3.092-0.91,4.777-0.936v-6.766c-2.586,0.035-5.055,0.545-7.324,1.445
		L24.555,29.664z"/>
	<path fill="#B52B33" d="M35.26,29.961c1.51,0.688,2.883,1.625,4.041,2.783l4.832-4.828c-1.797-1.773-3.922-3.219-6.266-4.242
		L35.26,29.961z"/>
	<path fill="#B52B33" d="M44.527,28.322l-4.84,4.84c1.074,1.16,1.961,2.496,2.586,3.971l6.324-2.691
		C47.613,32.158,46.225,30.09,44.527,28.322"/>
	<path fill="#B52B33" d="M29.898,28.736c1.709,0.041,3.34,0.387,4.844,0.998l2.602-6.279c-2.305-0.93-4.816-1.457-7.445-1.494
		V28.736z"/>
	<path fill="#B52B33" d="M16.848,47.963c-0.641-1.496-1.008-3.133-1.08-4.846H8.955c0.064,2.664,0.623,5.203,1.604,7.525
		L16.848,47.963z"/>
	<path fill="#B52B33" d="M15.738,42.551c0-0.006,0-0.012,0-0.018c0-1.684,0.316-3.297,0.871-4.791l-6.264-2.6
		c-0.895,2.299-1.393,4.797-1.4,7.408H15.738z"/>
	<path fill="#B52B33" d="M42.088,48.322c-0.67,1.451-1.578,2.77-2.689,3.896l4.926,4.925c1.746-1.768,3.172-3.852,4.191-6.152
		L42.088,48.322z"/>
	<path fill="#B52B33" d="M43.344,43.117c-0.07,1.654-0.418,3.236-1.016,4.689l6.41,2.66c0.938-2.273,1.473-4.752,1.535-7.35H43.344z
		"/>
	<path fill="#B52B33" d="M42.473,37.668c0.57,1.516,0.898,3.152,0.898,4.865v0.018h6.912c-0.01-2.682-0.533-5.234-1.471-7.584
		L42.473,37.668z"/>
	<path fill="#B52B33" d="M38.988,52.609c-1.168,1.096-2.52,1.996-4.012,2.637l2.627,6.447c2.361-0.986,4.496-2.406,6.314-4.152
		L38.988,52.609z"/>
	<path fill="#B52B33" d="M29.33,56.341c-1.631-0.025-3.193-0.34-4.643-0.889l-2.652,6.404c2.262,0.893,4.721,1.398,7.295,1.432
		V56.341z"/>
	<path fill="#B52B33" d="M24.156,55.255c-1.479-0.627-2.813-1.516-3.975-2.59l-4.873,4.875c1.789,1.717,3.883,3.115,6.199,4.105
		L24.156,55.255z"/>
	<path fill="#B52B33" d="M19.764,52.285c-1.096-1.102-1.994-2.393-2.672-3.809l-6.303,2.684c1.016,2.236,2.414,4.259,4.113,5.984
		L19.764,52.285z"/>
	<path fill="#B52B33" d="M34.445,55.445c-1.42,0.539-2.949,0.85-4.547,0.891v6.953c2.527-0.031,4.945-0.521,7.176-1.383
		L34.445,55.445z"/>
	<path fill="#B52B33" d="M72.66,42.572c0,2.943,2.387,5.33,5.332,5.33c2.941,0,5.328-2.387,5.328-5.33s-2.387-5.33-5.328-5.33
		C75.047,37.242,72.66,39.629,72.66,42.572"/>
	<path fill="#B52B33" d="M68.299,32.762c1.193-1.176,2.604-2.131,4.158-2.814l-2.545-6.252c-2.396,1.027-4.557,2.49-6.385,4.297
		L68.299,32.762z"/>
	<path fill="#B52B33" d="M65.234,37.283c0.639-1.531,1.557-2.916,2.672-4.107l-4.777-4.779c-1.738,1.816-3.156,3.941-4.145,6.293
		L65.234,37.283z"/>
	<path fill="#B52B33" d="M72.984,29.74c1.486-0.578,3.094-0.91,4.777-0.936v-6.764c-2.586,0.033-5.053,0.543-7.328,1.443
		L72.984,29.74z"/>
	<path fill="#B52B33" d="M83.689,30.037c1.512,0.686,2.881,1.627,4.045,2.781l4.828-4.828c-1.799-1.773-3.918-3.217-6.264-4.242
		L83.689,30.037z"/>
	<path fill="#B52B33" d="M92.957,28.396l-4.84,4.84c1.072,1.162,1.961,2.496,2.59,3.973l6.32-2.691
		C96.041,32.232,94.656,30.166,92.957,28.396"/>
	<path fill="#B52B33" d="M78.328,28.811c1.709,0.041,3.342,0.389,4.842,1l2.604-6.279c-2.305-0.93-4.816-1.455-7.445-1.49V28.811z"
		/>
	<path fill="#B52B33" d="M65.277,48.039c-0.641-1.496-1.01-3.133-1.082-4.846h-6.809c0.061,2.662,0.621,5.203,1.598,7.525
		L65.277,48.039z"/>
	<path fill="#B52B33" d="M64.168,42.627c0-0.006,0-0.01,0-0.018c0-1.688,0.316-3.295,0.869-4.791l-6.262-2.598
		c-0.893,2.297-1.389,4.791-1.398,7.406H64.168z"/>
	<path fill="#B52B33" d="M90.52,48.396c-0.672,1.453-1.578,2.773-2.688,3.9l4.922,4.921c1.746-1.77,3.172-3.852,4.193-6.154
		L90.52,48.396z"/>
	<path fill="#B52B33" d="M91.771,43.193c-0.068,1.654-0.416,3.236-1.018,4.688l6.414,2.664c0.938-2.275,1.477-4.754,1.533-7.352
		H91.771z"/>
	<path fill="#B52B33" d="M90.902,37.742c0.572,1.516,0.9,3.15,0.9,4.869c0,0.004-0.002,0.01-0.002,0.016h6.91
		c-0.008-2.68-0.531-5.238-1.469-7.584L90.902,37.742z"/>
	<path fill="#B52B33" d="M87.418,52.685c-1.168,1.096-2.518,1.996-4.012,2.637l2.625,6.451c2.363-0.992,4.5-2.41,6.316-4.156
		L87.418,52.685z"/>
	<path fill="#B52B33" d="M77.762,56.416c-1.633-0.025-3.195-0.34-4.645-0.887l-2.652,6.402c2.262,0.895,4.721,1.398,7.297,1.436
		V56.416z"/>
	<path fill="#B52B33" d="M72.586,55.332c-1.479-0.627-2.813-1.514-3.975-2.59l-4.873,4.875c1.791,1.717,3.885,3.115,6.197,4.104
		L72.586,55.332z"/>
	<path fill="#B52B33" d="M68.195,52.359c-1.098-1.102-1.996-2.391-2.672-3.809l-6.305,2.686c1.014,2.236,2.412,4.257,4.113,5.982
		L68.195,52.359z"/>
	<path fill="#B52B33" d="M82.875,55.519c-1.42,0.541-2.949,0.854-4.547,0.893v6.955c2.531-0.033,4.945-0.525,7.176-1.387
		L82.875,55.519z"/>
	<path fill="#B52B33" d="M57.137,52.742c-1.285-2.636-2.105-5.542-2.301-8.626h-2.191c-0.188,3.078-0.992,5.988-2.266,8.626H57.137z
		"/>
	<path fill="#B52B33" d="M59.621,56.769H47.898c-0.279,0.365-0.563,0.73-0.867,1.084l6.648,10.186l7.209-9.766
		C60.445,57.791,60.023,57.287,59.621,56.769"/>
	<path fill="#B52B33" d="M54.086,95.099c0,0-5.123-14.33-22.18-21.377c0,0,15.277,2.723,21.498,15.34c0,0,6.258-10.758,17.43-15.143
		C70.834,73.919,58.99,80.117,54.086,95.099 M77.918,65.761c-5.262,0-10.109-1.762-13.996-4.721l-10.42,14.125l-9.467-14.428
		c-3.963,3.188-8.996,5.098-14.48,5.098c-12.777,0-23.137-10.355-23.137-23.132c0-4.967,1.572-9.566,4.238-13.338
		c0.199-2.582,0.23-10.057-5.16-16.283c0,0,10.578,2.842,16.266,2.725c0,0,8.646-0.52,12.844,2.305
		c1.852-0.523,10.879-2.889,21.98-2.502c0,0,9.145,0.217,16.477,2.297c0.977-0.686,4.773-2.986,11.629-2.795
		c0,0,2.672,0.158,4.293-0.064C88.891,7.982,83.143,2.281,76.059,2.281H12.938C5.793,2.281,0,8.076,0,15.221v63.117
		c0,7.146,5.793,12.938,12.938,12.938H49.9c0.053,0.084,2.926,4.689,4.541,10.457c0,0,1.074-6.453,3.305-10.441l-0.004-0.016h18.316
		c7.141,0,12.936-5.791,12.936-12.938V62.941C85.703,64.74,81.934,65.761,77.918,65.761"/>
	<path fill="#B52B33" d="M101.846,13.113c0,0-4.916,5.518-3.969,17.646c0,0-1.025-2.115-2.564-3.582c0,0,0.156-6.596,1.895-10.584
		c0,0-3.16,0.746-8.215,0.945l-0.008-2.494C88.984,15.045,96.652,14.918,101.846,13.113"/>
	<path fill="#B52B33" d="M36.467,20.129c0,0,16.08-4.678,35.992,0c0,0-12.305,2.072-18.404,14.213
		C54.055,34.342,49.318,23.299,36.467,20.129"/>
</g>
<g>
</g>
<g>
</g>
<g>
</g>
<g>
</g>
<g>
</g>
<g>
</g>
</svg>
